<svg id="Layer_1" data-name="Layer 1" xmlns="http://www.w3.org/2000/svg" viewBox="0 0 45.98 56.41"><defs><style>.cls-1{fill:#231f20;fill-rule:evenodd;}</style></defs><title>Apple</title><path class="cls-1" d="M4778.93,47.52a12.07,12.07,0,0,1,8.86-4.91,12,12,0,0,1-2.92,9c-3.93,4.72-8.4,4-8.4,4S4775.63,51.87,4778.93,47.52Z" transform="translate(-4753.56 -42.62)"/><path class="cls-1" d="M4776.94,58.8c1.91,0,5.45-2.62,10.05-2.62,7.93,0,11,5.64,11,5.64a12.25,12.25,0,0,0-6.1,10.69c0,8.54,7.6,11.48,7.6,11.48s-5.31,15-12.49,15c-3.3,0-5.86-2.22-9.33-2.22s-7.05,2.3-9.34,2.3c-6.55,0-14.83-14.18-14.83-25.58,0-11.22,7-17.1,13.58-17.1C4771.41,56.34,4774.72,58.8,4776.94,58.8Z" transform="translate(-4753.56 -42.62)"/></svg>