<svg id="Layer_1" data-name="Layer 1" xmlns="http://www.w3.org/2000/svg" viewBox="0 0 82.51 17.61"><defs><style>.cls-1{fill:#231f20;}</style></defs><title>BBDakota</title><path class="cls-1" d="M4885.25,1689.07a1.8,1.8,0,0,1-1.8,1.34h-1.1v-5.08h1.08a1.76,1.76,0,0,1,1.45.6,3.24,3.24,0,0,1,.55,2.09,3,3,0,0,1-.18,1.06m-2.9-10.63h1.08a1.66,1.66,0,0,1,1.24.54,2.26,2.26,0,0,1,.52,1.61,3.34,3.34,0,0,1-.15,1.08,1.58,1.58,0,0,1-1.61,1.17h-1.08Zm5.82,8.57a5,5,0,0,0-.59-1.69,3,3,0,0,0-1.46-1.3,2.58,2.58,0,0,0,.9-.67,4,4,0,0,0,.91-2.76,6,6,0,0,0-.25-1.82,3.75,3.75,0,0,0-1.5-2.12,4.92,4.92,0,0,0-2.76-.8h-3.74V1693h4.66a4,4,0,0,0,3.3-2,5.71,5.71,0,0,0,.61-2.76,6.71,6.71,0,0,0-.1-1.19m7.57,2.06a1.8,1.8,0,0,1-1.8,1.34h-1.1v-5.08h1.08a1.76,1.76,0,0,1,1.45.6,3.24,3.24,0,0,1,.55,2.09,3,3,0,0,1-.18,1.06m-2.9-10.63h1.08a1.66,1.66,0,0,1,1.24.54,2.26,2.26,0,0,1,.52,1.61,3.34,3.34,0,0,1-.15,1.08,1.58,1.58,0,0,1-1.61,1.17h-1.08Zm5.82,8.57a5,5,0,0,0-.59-1.69,3,3,0,0,0-1.46-1.3,2.59,2.59,0,0,0,.9-.67,4,4,0,0,0,.91-2.76,6,6,0,0,0-.25-1.82,3.75,3.75,0,0,0-1.5-2.12,4.92,4.92,0,0,0-2.76-.8h-3.74V1693h4.66a4,4,0,0,0,3.3-2,5.71,5.71,0,0,0,.61-2.76,6.71,6.71,0,0,0-.1-1.19m54.08-11.14v2.57H4950V1693h-2.57v-14.54h-2.73v-2.58Zm3.74,10.66,1-6.75,1,6.75Zm2.74-10.67h-3.55l-2.79,17.13h2.69l.63-3.94h2.7l.61,3.94h2.72Zm-28.6,7,4.26,10.14h-3l-2.72-7-.77,1.53V1693h-2.58v-17.12h2.58V1682l3-6.11h2.75Zm9.93,6.72c-.29.54-.66.88-1.12.88s-.81-.34-1.1-.88-.6-2.31-.67-5.19.25-4.64.55-5.2a1.22,1.22,0,0,1,1.09-.77,1.23,1.23,0,0,1,1.12.77c.3.56.49,2.31.55,5.19s-.14,4.64-.44,5.19m-1.19-13.95a3.3,3.3,0,0,0-3.23,2.13,17.86,17.86,0,0,0-.91,6.68,17.54,17.54,0,0,0,1,6.59,3.47,3.47,0,0,0,6.47,0,18.4,18.4,0,0,0,.8-6.59,17.86,17.86,0,0,0-.92-6.68,3.3,3.3,0,0,0-3.23-2.12m-29.28,13.82a1.36,1.36,0,0,1-1.36.95h-1.11v-11.95h1.1a1.53,1.53,0,0,1,1.36.92c.37.66.58,2.4.62,5.17a13.59,13.59,0,0,1-.62,4.92m-1.12-13.59H4905V1693H4909a3.46,3.46,0,0,0,3.29-2.22,15.45,15.45,0,0,0,1-6.35c0-3.09-.35-5.31-1-6.59a3.49,3.49,0,0,0-3.29-2m9.2,10.69,1-6.74,1,6.74Zm-.81-10.69-2.9,17.13h2.69l.63-3.94h2.7l.61,3.94h2.72l-2.88-17.13Z" transform="translate(-4879.69 -1675.62)"/></svg>