<svg id="Layer_1" data-name="Layer 1" xmlns="http://www.w3.org/2000/svg" viewBox="0 0 26.95 42.21"><defs><style>.cls-1{fill:#231f20;}</style></defs><title>Chrome</title><path class="cls-1" d="M4442,196.05h-25.57v42.21h26.95V196.05Zm-1.37,39.46h-21.45V198.8h21.45Z" transform="translate(-4416.43 -196.05)"/><polygon class="cls-1" points="19.09 32.61 18.97 32.61 18.97 32.74 18.97 33.35 18.09 35.39 17.2 33.29 17.2 32.74 17.2 32.61 17.08 32.61 16.44 32.61 16.32 32.61 16.32 32.74 16.32 38.09 16.32 38.22 17.2 38.22 17.2 38.09 17.2 35.64 17.76 36.98 18.42 36.98 18.97 35.66 18.97 38.09 18.97 38.22 19.86 38.22 19.86 38.09 19.86 32.74 19.86 32.61 19.73 32.61 19.09 32.61"/><polygon class="cls-1" points="6.47 36.93 5.58 36.93 5.58 37.31 4.77 37.31 4.77 33.54 5.58 33.54 5.58 33.99 6.47 33.99 6.47 32.61 3.88 32.61 3.88 38.22 6.47 38.22 6.47 36.93"/><polygon class="cls-1" points="20.48 32.61 20.48 34.91 20.18 34.91 20.18 35.84 20.48 35.84 20.48 38.22 23.07 38.22 23.07 36.93 22.18 36.93 22.18 37.31 21.37 37.31 21.37 35.84 22.81 35.84 22.81 34.91 21.37 34.91 21.37 33.54 22.19 33.54 22.19 33.99 23.08 33.99 23.08 32.61 20.49 32.61 20.48 32.61"/><path class="cls-1" d="M4432.14,228.67h-2.46v5.61h2.59v-5.61h-.12Zm-.77,4.69h-.81V229.6h.81Z" transform="translate(-4416.43 -196.05)"/><polygon class="cls-1" points="8.63 34.91 7.85 34.91 7.85 32.61 6.96 32.61 6.96 34.91 6.66 34.91 6.66 35.84 6.96 35.84 6.96 38.22 7.85 38.22 7.85 35.84 8.63 35.84 8.63 38.22 9.52 38.22 9.52 32.61 8.63 32.61 8.63 34.91"/><path class="cls-1" d="M4428.61,231.81l.53-.6v-2.55h-2.59V231h-.29v.93h.3v2.38h.89v-2.37h.32l.79,2.37h.7v-.53Zm-.36-.83h-.81V229.6h.81Z" transform="translate(-4416.43 -196.05)"/><path class="cls-1" d="M4420.94,206.27l.85,3.1,2.1.66.12.5-2.19-.6.78,2.94,1.75-.25.22.34-1.72.34,1.13,1.6,1.6-.75.29.25-1.57.85,1.19.91,1.22-1,.34.22-1.1,1,1.33.42.7-.8.34.16-.63.85.82.29,1.15-1.24.31.18-1.37,1.43-3.35-1.15-1.82,2-.85,3.46.31,4.22,5.74,0h1.81v-.93h.36v.93h.25v-.93h.36v.93h.28v-1.65h-3.06l-.36,0,1.14-1.91.4-1.95-1.09-.22-.71.14-.08-.33.79-.15,1.51.28,2.4-.94.87.92,1.06,5.71h2.16v-.71h.36V226h.25v-.71h.36V226h.21v-1.65H4436l-.29-8.15.84-2.21,0-2.13-3.06-.76-.88-2,.67-1.21.61-.22.69.28.44.56.57-.38-.72-.62.51-.31.5.71,1-.46.2-.22-.19-.53-.07-.58-.53-1v-.56l-1.26-1.29-1.91.14.28-.82-.55-.5-2.44.61,1.11,1.64-.36.2-1.28-1.53-1.19,1.21,1.28,1.36-.23.3-1.3-1.3-.64,1.17L4429,207l-.18.32-1.14-1-.31,1,1.06.73-.15.36-1-.63-.09.82.88.37-.13.34-.74-.34,0,.69,1.65.21,2.24.3,1.45,1.11-.23,1.76-.86.29-.26-.34.78-.29.08-1.3-1.15-.84-2.11-.28-1.75-.19-.56-.55-.69-3.66-1.78-2.13-1.81-3.27-1.26,5.3,2.47.78-.13.34Zm14.48-1a.35.35,0,1,1-.35.35A.35.35,0,0,1,4435.41,205.27Z" transform="translate(-4416.43 -196.05)"/></svg>