<svg id="Layer_1" data-name="Layer 1" xmlns="http://www.w3.org/2000/svg" viewBox="0 0 70.58 45.06"><defs><style>.cls-1{fill:#1e1e1e;}</style></defs><title>FruitoftheLoom</title><polygon class="cls-1" points="0 36.28 0 44.53 0.75 44.53 0.75 40.27 3.96 40.27 3.96 39.57 0.75 39.57 0.75 36.98 4.08 36.98 4.08 36.28 0 36.28"/><path class="cls-1" d="M5062.85,1432v-3h.75c1.32,0,1.88.38,1.88,1.57s-.6,1.48-1.88,1.48Zm3.44-1.46c0-1.51-.89-2.25-2.68-2.25h-1.51v8.25h.75v-3.94h.45l2.9,3.94h.91l-3-3.94a2,2,0,0,0,2.15-2.07" transform="translate(-5056.53 -1392.04)"/><path class="cls-1" d="M5073.19,1433.7c0,1.62-.73,2.41-2.25,2.41s-2.25-.8-2.25-2.41v-5.39h-.75v5.15c0,2.23,1,3.33,3,3.33s3-1.1,3-3.33v-5.15h-.75Z" transform="translate(-5056.53 -1392.04)"/><rect class="cls-1" x="19.22" y="36.28" width="0.75" height="8.26"/><polygon class="cls-1" points="21.24 36.28 21.24 36.98 23.51 36.98 23.51 44.53 24.26 44.53 24.26 36.98 26.53 36.98 26.53 36.28 21.24 36.28"/><path class="cls-1" d="M5086.12,1430.25a1.57,1.57,0,1,1,1.56,1.58,1.57,1.57,0,0,1-1.56-1.58m2.92,1.32a1.86,1.86,0,0,0,0-2.66,2,2,0,0,0-2.7,0,1.86,1.86,0,0,0,0,2.66,1.89,1.89,0,0,0,1.35.55,1.92,1.92,0,0,0,1.35-.55" transform="translate(-5056.53 -1392.04)"/><polygon class="cls-1" points="35.36 37.84 33.97 37.84 33.97 36.73 35.42 36.73 35.42 36.42 33.65 36.42 33.65 39.99 33.97 39.99 33.97 38.15 35.36 38.15 35.36 37.84"/><polygon class="cls-1" points="27.65 40.8 27.65 41.1 28.64 41.1 28.64 44.37 28.96 44.37 28.96 41.1 29.94 41.1 29.94 40.8 27.65 40.8"/><polygon class="cls-1" points="32.95 40.8 32.95 42.24 31.01 42.24 31.01 40.8 30.69 40.8 30.69 44.37 31.01 44.37 31.01 42.52 32.95 42.52 32.95 44.37 33.28 44.37 33.28 40.8 32.95 40.8"/><polygon class="cls-1" points="34.37 40.8 34.37 44.37 36.14 44.37 36.14 44.06 34.7 44.06 34.7 42.52 36.14 42.52 36.14 42.22 34.7 42.22 34.7 41.1 36.14 41.1 36.14 40.8 34.37 40.8"/><polygon class="cls-1" points="38.52 36.26 38.52 44.51 42.09 44.51 42.09 43.81 39.27 43.81 39.27 36.26 38.52 36.26"/><path class="cls-1" d="M5110.93,1436.1a3.67,3.67,0,1,1,3.62-3.66,3.61,3.61,0,0,1-3.62,3.66m-8.82,0a3.67,3.67,0,1,1,3.62-3.66,3.61,3.61,0,0,1-3.62,3.66m11.94-6.74a4.53,4.53,0,0,0-6.24,0,1.76,1.76,0,1,1-2.57,0,4.53,4.53,0,0,0-6.24,0,4.3,4.3,0,0,0,0,6.14,4.37,4.37,0,0,0,3.12,1.27,4.43,4.43,0,0,0,3.13-1.27,4.23,4.23,0,0,0,1.29-2.94,4.27,4.27,0,0,0,1.29,2.94,4.37,4.37,0,0,0,3.12,1.27,4.44,4.44,0,0,0,3.13-1.27,4.3,4.3,0,0,0,0-6.14" transform="translate(-5056.53 -1392.04)"/><polygon class="cls-1" points="62.95 43.25 59.79 35.91 58.67 44.51 59.45 44.51 60.07 38.21 62.97 44.84 65.91 38.21 66.52 44.51 67.29 44.51 66.23 35.91 62.95 43.25"/><path class="cls-1" d="M5125.33,1435.56V1435h.34c.17,0,.38,0,.38.24s-.2.31-.41.31Zm1-.27c0-.34-.17-.48-.58-.48h-.61v1.71h.24v-.75h.27l.48.75h.24l-.48-.78a.4.4,0,0,0,.44-.44" transform="translate(-5056.53 -1392.04)"/><path class="cls-1" d="M5125.64,1436.89a1.19,1.19,0,0,1-1.19-1.23,1.15,1.15,0,0,1,1.19-1.19,1.17,1.17,0,0,1,1.19,1.19,1.22,1.22,0,0,1-1.19,1.23m0-2.66a1.43,1.43,0,1,0,1.47,1.43,1.44,1.44,0,0,0-1.47-1.43" transform="translate(-5056.53 -1392.04)"/><path class="cls-1" d="M5093.74,1421.65a2,2,0,0,1-1.45-3.48,2,2,0,0,1,1.45-.6,2,2,0,0,1,2,2,2,2,0,0,1-2,2m-3.62,1.12a1.87,1.87,0,0,1-1.81-1.83,1.78,1.78,0,0,1,.55-1.31,1.69,1.69,0,0,1,1.26-.53,1.79,1.79,0,0,1,1.22.45v0a2.35,2.35,0,0,0,.6,1.57,1.88,1.88,0,0,1-1.81,1.59m-3.33-4.65a1.78,1.78,0,0,1-.12-.64,1.89,1.89,0,0,1,.52-1.29,2,2,0,0,1,1.31-.55,1.79,1.79,0,0,1,1.79,1.84,1.77,1.77,0,0,1-.45,1.24,2.42,2.42,0,0,0-1.22.59,2.28,2.28,0,0,1-.4,0,2.27,2.27,0,0,0-1.43-1.17m1.14,2.81v.09a2.12,2.12,0,0,1-1.69,1.1,1.86,1.86,0,0,1-1.29-.55,1.81,1.81,0,0,1,0-2.6,1.74,1.74,0,0,1,1.29-.52,2.08,2.08,0,0,1,1.83,1.67,2.24,2.24,0,0,0-.14.81m-4.48,3.48a2,2,0,0,1-1.29-.55,1.78,1.78,0,0,1-.52-1.26,1.87,1.87,0,0,1,.5-1.26,2,2,0,0,0,.29.33,2.09,2.09,0,0,0,1.57.64,2,2,0,0,0,1-.24.59.59,0,0,0,.29.17,1.87,1.87,0,0,1,0,.36,1.83,1.83,0,0,1-1.83,1.81m-2.91-.24a2.3,2.3,0,0,1-1.74-.74h.83a.19.19,0,0,0,.19-.19.18.18,0,0,0-.19-.17h-1.12s0,0,0-.07a1.64,1.64,0,0,0,.4-.31h.76a.18.18,0,0,0,.19-.17.21.21,0,0,0-.19-.19h-.41a2.79,2.79,0,0,0,.59-1.79v-.14a2.62,2.62,0,0,0,1.45.41,2.4,2.4,0,0,0,.6,0l.07.24a2.19,2.19,0,0,0-.69,1.6,2.14,2.14,0,0,0,.43,1.29,2.4,2.4,0,0,1-1.14.28m-3.57-1.12a2.37,2.37,0,0,1-1.76-.74,1.75,1.75,0,0,1-.29-.31h.64a.21.21,0,0,0,.21-.21.19.19,0,0,0-.21-.17h-.83a1.8,1.8,0,0,1-.19-.5h.52a.16.16,0,0,0,.17-.17.17.17,0,0,0-.17-.19h-.57v0a2.72,2.72,0,0,0,.38-1.29,3.46,3.46,0,0,0,1.88.6,3.29,3.29,0,0,0,2.07-.74,2.75,2.75,0,0,0,.6.79,3,3,0,0,1,0,.45,2.5,2.5,0,0,1-2.5,2.5m-5-1.22a2.5,2.5,0,0,1-1.79-.76,1.49,1.49,0,0,1-.26-.31h1.26a.21.21,0,0,0,.19-.21.18.18,0,0,0-.19-.17s-1.48,0-1.5,0a3.46,3.46,0,0,1-.19-.86h1.29a.16.16,0,0,0,.17-.17.17.17,0,0,0-.17-.19h-1.33c0-.21.07-.38.12-.57h1c.1,0,.22-.07.22-.17a.23.23,0,0,0-.22-.21h-.88a3.29,3.29,0,0,1,.62-.81,3.27,3.27,0,0,0,2,.62,4.18,4.18,0,0,0,1.24-.19,3.51,3.51,0,0,0,.91,1.31v.14a3,3,0,0,1-.36,1.29,2.63,2.63,0,0,1-2.12,1.24m-3.83-2.88c.22-.93.07-1.55-.33-1.86-.62-.43-1.62,0-2.17.26a1,1,0,0,0-.48-.6,2,2,0,0,0-1.48,0,1,1,0,0,0-.55-.43,2.21,2.21,0,0,0-1.67.4,3.45,3.45,0,0,0-.59-1.48,2.14,2.14,0,0,0,1-1,2.3,2.3,0,0,0,.07-1.31.62.62,0,0,0,.4-.36.9.9,0,0,0-.17-.83.83.83,0,0,0-.21-.62,1.24,1.24,0,0,0-1-.29,2.5,2.5,0,0,0-.4-1.45,1.21,1.21,0,0,0,.48-.69,1.19,1.19,0,0,0,0-.5,4,4,0,0,0,3.38-1.29c1-1.38.76-2.21.57-2.69a8.53,8.53,0,0,1,3.74-1.14,8.12,8.12,0,0,1,.88,0,2.9,2.9,0,0,0-1.24,2.36,3.15,3.15,0,0,0,.93,2.14,3,3,0,0,0-.1.79,3.78,3.78,0,0,0-1.72.62,5.05,5.05,0,0,1-2.14.76,4.11,4.11,0,0,1-2-.17.19.19,0,0,0-.24.12.17.17,0,0,0,.1.24,5,5,0,0,0,2.24.21.65.65,0,0,1,.19-.07,14.61,14.61,0,0,0-.69,1.65.17.17,0,0,0,.12.21.15.15,0,0,0,.24-.09,8.35,8.35,0,0,1,.83-1.81s0,0,.07-.07a6.39,6.39,0,0,0,1.5-.64,3.38,3.38,0,0,1,1.55-.57s0,.12,0,.19a3.17,3.17,0,0,0-2.24,3c0,.1,0,.19,0,.26a1.2,1.2,0,0,0-.59.24.19.19,0,1,0,.21.31,1.37,1.37,0,0,1,.43-.19,3.21,3.21,0,0,0,1.55,2.17,3.68,3.68,0,0,0,1,2.22,1.15,1.15,0,0,1,.24.24,2.36,2.36,0,0,0-.69,1c-.57.62-.93.74-1.17.74m-3.72-15.87a.44.44,0,0,1-.33-.19,1.56,1.56,0,0,1,0-.33,4,4,0,0,0,0-.74c0-.17-.14-.48-.21-.69v0a.81.81,0,0,0,0-.79c0-.12-.09-.31-.17-.48l-.29-.81a15,15,0,0,0,2.17.79.8.8,0,0,0,.91-1c.57,0,1.52-.26,1.55-1a.76.76,0,0,0-.29-.62,1.3,1.3,0,0,0-.91-.17,2.27,2.27,0,0,1,2-.81,3.52,3.52,0,0,1,2.45,1c.21.24.45.55.71.91.76,1,1.29,1.62,1.81,1.62a1.05,1.05,0,0,0,1-1l0-.07c.14-.52-.38-1.12-1.88-2.05,1,.14,1.45,0,1.55-.38,0-.07.07-.26-.38-.93a5.19,5.19,0,0,0-.4-.5,1.31,1.31,0,0,1,1,.12,2.54,2.54,0,0,1,.62.81,2.18,2.18,0,0,0,.43.64,1.74,1.74,0,0,0,1.74.26,1.55,1.55,0,0,0,1,.67,1.67,1.67,0,0,0,1.45-.55l.62.76a11.17,11.17,0,0,0-1.67,3.22,6.85,6.85,0,0,0-1.91-2.36c-.07-.07-.17,0-.26,0a.19.19,0,0,0,0,.26,5.92,5.92,0,0,1,2,2.6.11.11,0,0,1,0,.07c0,.19-.12.41-.17.64a2.6,2.6,0,0,0-.64-1,3,3,0,0,0-2.19-.9,3.09,3.09,0,0,0-2.48,1.24,2.47,2.47,0,0,0-1.6-.83,3.72,3.72,0,0,0-1.38-2.12.21.21,0,0,0-.26,0,.22.22,0,0,0,0,.29,3.47,3.47,0,0,1,1.24,1.83,4.36,4.36,0,0,0-1.1.4,2.16,2.16,0,0,1-1.38.43,4.37,4.37,0,0,1-.79-.22.17.17,0,0,0-.24.09.16.16,0,0,0,.1.24,3.45,3.45,0,0,0,.88.24,2.46,2.46,0,0,0,1.6-.45,1.89,1.89,0,0,1,2.69.38,3.12,3.12,0,0,0-.38,1.26,2.79,2.79,0,0,0-1.31-.31,2.25,2.25,0,0,0-.57,0,14.61,14.61,0,0,0-2-.19,7.73,7.73,0,0,0-2.86.64c-.57,0-1.36,0-1.55,0m21.7,11.36h3.48a2.27,2.27,0,0,0-.93.83,11.24,11.24,0,0,1-2.36-.48c-.07-.14-.12-.24-.19-.36m-1.57,3.55a2.33,2.33,0,0,0-.57-.07,2.55,2.55,0,0,0-.31-1.14.19.19,0,0,0,.14-.21.16.16,0,0,0-.17-.17h-.21a.82.82,0,0,0-.29-.29h.07a.2.2,0,0,0,.19-.21.17.17,0,0,0-.19-.17h-.55a1.56,1.56,0,0,0-.4-.19,1.68,1.68,0,0,0,.31-.41,3.28,3.28,0,0,0,2.14-1.43,2.31,2.31,0,0,1,1.43,2.12,2.41,2.41,0,0,1-1.6,2.17m-1.88.83a1.82,1.82,0,0,1,1.29-.55,1.78,1.78,0,0,1,.91.24,2.14,2.14,0,0,0-.88,1.76,2.31,2.31,0,0,0,.64,1.55,2.05,2.05,0,0,1-.67.12,1.73,1.73,0,0,1-1.29-.55,1.78,1.78,0,0,1,0-2.57m-2.41-9.05a4.43,4.43,0,0,0-.83-1.29,3.57,3.57,0,0,0-2.52-1,3.46,3.46,0,0,0-1.57.36v-.6h1.24a.2.2,0,0,0,.19-.19.18.18,0,0,0-.19-.17h-1.17a2.69,2.69,0,0,1,.81-1.45,3,3,0,0,1,4.22,0,3,3,0,0,1-.17,4.38m-8.41-.33h-2a2.27,2.27,0,0,1-.19-.76h1.83a.21.21,0,0,0,.19-.21.19.19,0,0,0-.19-.19h-1.83a2.93,2.93,0,0,1,.88-2,3.06,3.06,0,0,1,2.12-.88,3.1,3.1,0,0,1,1.1.21,3.13,3.13,0,0,0,1.38.67,3.47,3.47,0,0,0-.24,1.24,1.63,1.63,0,0,0,.07.48,3.57,3.57,0,0,0-1.69,3v.31a3.25,3.25,0,0,1-.62.1,3,3,0,0,1-2.12-.88,3.1,3.1,0,0,1-.52-.71h1.81a.17.17,0,0,0,.19-.17.19.19,0,0,0-.19-.21m5.43,3.77h-2.76a3.61,3.61,0,0,1-.38-.53h2.55a.19.19,0,1,0,0-.38H5074a2.23,2.23,0,0,1-.17-.52h2.43a.2.2,0,0,0,.19-.19.18.18,0,0,0-.19-.17h-2.52a4.36,4.36,0,0,1,0-.55h2.12a.23.23,0,0,0,.22-.19c0-.1-.12-.17-.22-.17h-2.07a3.2,3.2,0,0,1,3.19-2.69,3.21,3.21,0,0,1,3.19,3.19,3.21,3.21,0,0,1-5.17,2.57h2.36a.19.19,0,1,0,0-.38m2.62,1.88h-.22a2.17,2.17,0,0,0-.31-.5h.62a.19.19,0,0,0,.19-.19.18.18,0,0,0-.19-.17h-1a.55.55,0,0,0-.22-.19,3.66,3.66,0,0,0,.6-.48,3.51,3.51,0,0,0,1-2.31,2.49,2.49,0,0,1-.41,5,2.58,2.58,0,0,0-.17-.74.19.19,0,0,0,.19-.19.18.18,0,0,0-.17-.19m2.79-2.57h.69a.18.18,0,0,0,.19-.17.19.19,0,0,0-.19-.19h-.91a1.88,1.88,0,0,0-.33-.41h.64a.21.21,0,0,0,.19-.19.23.23,0,0,0-.19-.22l-1,0a3.37,3.37,0,0,0-1.29-.5,2.47,2.47,0,0,0-.09-.72,2.9,2.9,0,0,0,.76-.76,3.23,3.23,0,0,1,1-.19,2.85,2.85,0,0,1,2.79,2.79,2.76,2.76,0,0,1-2.1,2.69,2.74,2.74,0,0,0,.19-1,3.33,3.33,0,0,0-.26-1.19m-8.81-9.39h-.86a3.2,3.2,0,0,1,0-.5h.91a.21.21,0,0,0,.19-.21.17.17,0,0,0-.19-.17h-.76a2.53,2.53,0,0,1,.62-1,2.73,2.73,0,0,1,3.83,0,2.85,2.85,0,0,1,.79,1.55c0,.43-.07.86-.1,1.29v0h0a3.33,3.33,0,0,0-3,1.79,2.8,2.8,0,0,1-1.93-1.21h1.1a.23.23,0,0,0,.19-.21.21.21,0,0,0-.19-.19h-1.26a2.06,2.06,0,0,1-.24-.76h.86a.25.25,0,0,0,.22-.21.23.23,0,0,0-.22-.19m-4,2.48h-1v-.4h.69a.16.16,0,0,0,.17-.17c0-.12-.07-.22-.17-.22H5069a2.57,2.57,0,0,1,.64-1.1,2.47,2.47,0,0,1,1.76-.74,2.43,2.43,0,0,1,1.29.36,3.21,3.21,0,0,0,.62,1.74,4.58,4.58,0,0,0-.57,0,3.31,3.31,0,0,0-3.14,2.19,3,3,0,0,1-.62-1.26h1a.18.18,0,0,0,.17-.19.16.16,0,0,0-.17-.17m-.81,7.34a3.57,3.57,0,0,0-.33,1.34l0,0a2.68,2.68,0,0,1-1-1.36Zm-1.52-.38a2.9,2.9,0,0,1,0-.45h.91a.19.19,0,0,0,.19-.19.18.18,0,0,0-.19-.17h-.91a2.84,2.84,0,0,1,1.93-2.41,3.65,3.65,0,0,0,.86,1.43c.19.17.33.29.52.43a3.72,3.72,0,0,0-1.55,1.36Zm4.17,3.76h-2a3,3,0,0,1-.31-.52h2a.17.17,0,0,0,.19-.19.19.19,0,0,0-.19-.19h-2.07a2.1,2.1,0,0,1-.17-.86H5071a.19.19,0,0,0,.21-.19.21.21,0,0,0-.21-.19h-1.88a3.41,3.41,0,0,1,.45-1.33,3.23,3.23,0,0,1,1.67-1.41,3.52,3.52,0,0,0,1.48.33,2.35,2.35,0,0,0,.67-.1,3.59,3.59,0,0,0,1,1.88,3.9,3.9,0,0,0,1.17.79s0,.07,0,.09a3.22,3.22,0,0,1-5.5,2.29,0,0,0,0,0,0,0h1.71a.19.19,0,0,0,0-.38m4.57,2.24h-1.86a2.76,2.76,0,0,1-.45-.67h2a.2.2,0,0,0,.19-.19.18.18,0,0,0-.19-.17h-1.76a4.83,4.83,0,0,0,.64-.55h.83a.17.17,0,0,0,.17-.19.16.16,0,0,0-.17-.17h-.5a3.52,3.52,0,0,0,.71-2.14,4.78,4.78,0,0,0,1,.12,3.72,3.72,0,0,0,1.6-.36,3,3,0,0,1,1.22,2.41,3,3,0,0,1-4.93,2.29h1.5a.18.18,0,0,0,.19-.17.21.21,0,0,0-.19-.21m5.48,1.83a3.41,3.41,0,0,1-.52,0,2.55,2.55,0,0,1-1.76-.76h.26a.23.23,0,0,0,.19-.21.2.2,0,0,0-.19-.19h-.52a1,1,0,0,1-.12-.21,1.56,1.56,0,0,1,.26-.29h.88c.1,0,.17-.12.17-.21a.18.18,0,0,0-.17-.19h-.62a2.24,2.24,0,0,0,.17-.33h.55c.09,0,.21-.07.21-.17a.21.21,0,0,0-.21-.19H5080a3.69,3.69,0,0,0,.14-1v-.09a2.7,2.7,0,0,0,1.91-.71,2.42,2.42,0,0,1,1.64,2.1,2.17,2.17,0,0,0-1.88,2.17c0,.1,0,.19,0,.29m8.24-4.48a2.35,2.35,0,0,0-.93-.57,1.76,1.76,0,0,1,1.45-.74,1.86,1.86,0,0,1,1.31.55,1.06,1.06,0,0,1,.24.31v0a1.54,1.54,0,0,1,.24.57,0,0,0,0,1,0,0l0,0a1.45,1.45,0,0,1,0,.33,1.79,1.79,0,0,1-1.81,1.81h0a1.71,1.71,0,0,0,.17-.79,2.22,2.22,0,0,0-.64-1.55m-8-19.47a11,11,0,0,1,18.86,7.82,11.14,11.14,0,0,1-8.57,10.82.83.83,0,0,0-.19-.21,2.42,2.42,0,0,0-.57-.43h1a.18.18,0,0,0,.17-.19.17.17,0,0,0-.17-.19h-6.6a3.25,3.25,0,0,0-.83-.64h7.29a.17.17,0,0,0,.19-.17.18.18,0,0,0-.19-.19h-7.26a5,5,0,0,0,.17-.64h4a.19.19,0,0,0,.19-.19.18.18,0,0,0-.19-.17h-4a2.69,2.69,0,0,0-.07-.64h2.07a.19.19,0,0,0,0-.38h-2.14l-.29-.64h.74a.18.18,0,0,0,.19-.17.19.19,0,0,0-.19-.19h-1a2.49,2.49,0,0,0-.24-.26,3.24,3.24,0,0,0-.45-.38h.74a.19.19,0,0,0,.19-.19.21.21,0,0,0-.19-.19h-1.5a3,3,0,0,0-1-.17,3.6,3.6,0,0,0-.71.07,2.47,2.47,0,0,0,.21-.52h1.72a.18.18,0,0,0,.17-.19.19.19,0,0,0-.17-.22h-1.64a3.16,3.16,0,0,0,0-.48v-.14h.79a.2.2,0,0,0,.19-.19.19.19,0,0,0-.19-.19h-.81a2.6,2.6,0,0,0-.14-.62h.41a.21.21,0,0,0,.21-.21c0-.09-.09-.17-.21-.17h-.57a3,3,0,0,0-.43-.64h.1a.19.19,0,1,0,0-.38h-.45a4,4,0,0,0-1.07-.64h1a.16.16,0,0,0,.17-.17.17.17,0,0,0-.17-.19h-1.76a5.6,5.6,0,0,1,0-.64H5080a.19.19,0,0,0,.19-.19.18.18,0,0,0-.19-.17h-1.19a4.56,4.56,0,0,1,.1-.64h.64a.18.18,0,0,0,.19-.19.19.19,0,0,0-.19-.19H5079l.14-.64h.48a.18.18,0,0,0,.19-.17.23.23,0,0,0-.19-.21h-.36a10.89,10.89,0,0,1,2.74-4.46m16.1-2.1a2.9,2.9,0,0,1,2.1.88,2.88,2.88,0,0,1,.26,3.86l-.36.17a11,11,0,0,0-.91-1.55h.17a.19.19,0,0,0,.19-.19.17.17,0,0,0-.19-.17h-.45a3.7,3.7,0,0,0-.45-.57h1.19a.21.21,0,0,0,.19-.19.18.18,0,0,0-.19-.17h-1.52a2.34,2.34,0,0,0-.24-.26,9.74,9.74,0,0,0-1.53-1.26,2.89,2.89,0,0,1,1.74-.55m5.67-1.91a3,3,0,0,1,2.91,2.17,3.21,3.21,0,0,0-2.81,2.83,3.7,3.7,0,0,0-2.76,1.36,3.22,3.22,0,0,0,.33-1.5v-.24h1.4a.19.19,0,0,0,0-.38h-1.45a1.6,1.6,0,0,0-.14-.45h.88a.19.19,0,0,0,.19-.21.17.17,0,0,0-.19-.17h-1a2.74,2.74,0,0,0-.38-.62,3,3,0,0,1,3-2.79m5.36,3.34a2.88,2.88,0,0,1,.83,2,2.62,2.62,0,0,1-.43,1.48,3.45,3.45,0,0,0-2.29-.86,5.18,5.18,0,0,0-.6,0,4.52,4.52,0,0,0-.67-.5h.24a.21.21,0,0,0,.19-.19.23.23,0,0,0-.19-.21h-1.07a5.57,5.57,0,0,0-.91-.14,2.85,2.85,0,0,1,2.83-2.48,2.92,2.92,0,0,1,2,.81m1.26,6.19a3.16,3.16,0,0,1-3.14,3.15,3,3,0,0,1-1.62-.48,3.14,3.14,0,0,0,1.1-.76h.4a.19.19,0,0,0,.19-.19.18.18,0,0,0-.19-.17h-.09a4.72,4.72,0,0,0,.45-.74h.6a.18.18,0,0,0,.19-.17.21.21,0,0,0-.19-.21h-.48a2.34,2.34,0,0,0,.17-.62h.64c.09,0,.17-.07.17-.21a.16.16,0,0,0-.17-.17h-.62a.48.48,0,0,0,0-.19,3.79,3.79,0,0,0-.86-2.38h.29a3.06,3.06,0,0,1,2.22.91,3.17,3.17,0,0,1,.93,2.24m2.26,1.53a7,7,0,0,0-2-.43,4.17,4.17,0,0,0,.14-1.1,2.87,2.87,0,0,0,0-.64,3.79,3.79,0,0,0,1-.21,3,3,0,0,1,.45-.29l.57.12a1.21,1.21,0,0,0,.33.55.63.63,0,0,0,.5.12c.14,0,.62.52.62.52l.5.1a1.61,1.61,0,0,0,.74.57.84.84,0,0,0,.74,0,3.69,3.69,0,0,0,.67.81,2.16,2.16,0,0,0,1.26.45,2.65,2.65,0,0,1-2,1.26,17.4,17.4,0,0,1-3.43-.29,6.52,6.52,0,0,0-1.4-.17c-1,0-1.41.55-1.41,1a1.11,1.11,0,0,0,.33.76,1.48,1.48,0,0,0,1.1.4,3.16,3.16,0,0,0-2.17,1.19,3.62,3.62,0,0,0-1-1.76,6,6,0,0,0-.74-.57.57.57,0,0,1,0-.38,3.36,3.36,0,0,0,3-2,6.66,6.66,0,0,1,2,.41.23.23,0,0,0,.26-.1.21.21,0,0,0-.1-.26m-1.25,2.91a.71.71,0,0,1-.89-.52c0-.23.28-.47.9-.52a17.66,17.66,0,0,1,1.94.24,17.27,17.27,0,0,0-2,.8m5.28.25c-.07,0-.5.48-.62.55a2.26,2.26,0,0,1,.88.29c0,.17.12.36.17.5a2.78,2.78,0,0,1,.17.45c0,.26.31.36.5.43a1.45,1.45,0,0,1,.4.17l.17.07a1.33,1.33,0,0,1,.86,1h-1a.68.68,0,0,0-.72.57.71.71,0,0,0,.52.81.36.36,0,0,1,.21.12.26.26,0,0,1,0,.14l-.21.09a2.4,2.4,0,0,0-.5.31l-.1-.1a2.8,2.8,0,0,0-2-.81,2.72,2.72,0,0,0-1,.17,3.49,3.49,0,0,0,.28-1.31,3.17,3.17,0,0,0-3.17-3.17h-.12a2.81,2.81,0,0,0,1-.43,3.93,3.93,0,0,1,2.14-.71,4.11,4.11,0,0,1,2,.83m-1.19,9.86a2.5,2.5,0,0,1-.86-.14.24.24,0,0,0,.1-.17.21.21,0,0,0-.19-.19H5114a4.25,4.25,0,0,1-.45-.48h1.17a.17.17,0,0,0,.19-.17.18.18,0,0,0-.19-.19h-1.38a1.1,1.1,0,0,1-.17-.38.71.71,0,0,1,.1-.19h1.21a.17.17,0,0,0,.17-.19.18.18,0,0,0-.17-.19h-1.07a3.93,3.93,0,0,0,.17-1.1,3,3,0,0,0,0-.45,7.23,7.23,0,0,0,.62-.62,2.35,2.35,0,0,1,1.33-.43,2.44,2.44,0,0,1,2.43,2.43,2.43,2.43,0,0,1-2.43,2.45m-3.36,3.5a3.41,3.41,0,0,1-1.86-.57h.38a.21.21,0,0,0,.19-.21.18.18,0,0,0-.19-.17h-.83l-.31-.38a.78.78,0,0,0,0-.24h.45a.19.19,0,1,0,0-.38h-.4c0-.14,0-.31,0-.43h.09a.17.17,0,0,0,.17-.19.18.18,0,0,0-.17-.19h-.17a3.28,3.28,0,0,0-.17-.57,5.45,5.45,0,0,0,.67,0,3.47,3.47,0,0,0,2.52-1,2.53,2.53,0,0,0,.4-.48,2.92,2.92,0,0,0,2.43,1.69,3.21,3.21,0,0,1-3.19,3.12m-6.48,1.67a3.49,3.49,0,0,1-2.5-1,.49.49,0,0,1-.12-.1h1.88a.19.19,0,1,0,0-.38h-2.17a3.78,3.78,0,0,1-.43-.81h1.5a.21.21,0,0,0,.19-.19.23.23,0,0,0-.19-.22h-1.64a3.4,3.4,0,0,1,0-1.6,3.69,3.69,0,0,0,4-.74,4,4,0,0,0,1-1.74,3.6,3.6,0,0,1,2,3.26,3.53,3.53,0,0,1-3.52,3.53m-3.93-5c-.07,0-.17-.14-.26-.21s-.07-.07-.1-.12a2.79,2.79,0,0,1-.43-.5h1.17a.19.19,0,0,0,.19-.17.21.21,0,0,0-.19-.22h-1.38a2.09,2.09,0,0,1-.19-.5h1.19a.18.18,0,0,0,.17-.19.17.17,0,0,0-.17-.19h-1.26a3.68,3.68,0,0,1,0-.52V1414h.41a.19.19,0,0,0,.19-.19.21.21,0,0,0-.19-.19h-.36a2.35,2.35,0,0,1,.24-.86,4.19,4.19,0,0,0,1.1.19,3.74,3.74,0,0,1,3.86-.41,3.76,3.76,0,0,0,.74-.07,3.3,3.3,0,0,1,.45,1.6,3.24,3.24,0,0,1-3.24,3.24,2.73,2.73,0,0,1-1.22-.26h1.22a.21.21,0,0,0,.21-.19c0-.1-.12-.17-.21-.17h-1.88Zm-.07-17.42a3.44,3.44,0,0,1,2.43,1,3.38,3.38,0,0,1,1,2.43,3.42,3.42,0,0,1-2,3.07,3.85,3.85,0,0,0-1.31-.24,5.19,5.19,0,0,0-.62.07c0-.09,0-.19,0-.26h.69a.18.18,0,0,0,.19-.19.21.21,0,0,0-.19-.21h-.67c0-.17,0-.38,0-.55h.88a.19.19,0,0,0,.19-.21.19.19,0,0,0-.19-.19h-.88a6.26,6.26,0,0,0,0-.64h1.26a.17.17,0,0,0,.19-.17.19.19,0,0,0-.19-.21h-1.29c0-.21,0-.41-.07-.62h.21a.19.19,0,0,0,.17-.22.16.16,0,0,0-.17-.17h-.29a10,10,0,0,0-.79-2.38,3.25,3.25,0,0,1,1.41-.31m3.36,5.22a4.15,4.15,0,0,0,.38-1.12h.07a.18.18,0,0,0,.19-.17.19.19,0,0,0-.19-.19h0a1.36,1.36,0,0,0,0-.31,4.86,4.86,0,0,0-.12-1h0a.17.17,0,0,0,.17-.19.16.16,0,0,0-.17-.17h-.17a1.77,1.77,0,0,0-.31-.6h0a.19.19,0,1,0,0-.38h-.29a1.8,1.8,0,0,0-.29-.33,2.1,2.1,0,0,0-.33-.29c.12,0,.19-.1.19-.19a.18.18,0,0,0-.19-.19h-.57a3.64,3.64,0,0,0-1.76-.43h-.17a3.41,3.41,0,0,1,2.52-1.12,2.85,2.85,0,0,1,1,.17s0,0,.1,0a2.9,2.9,0,0,1,1.31.81,3.4,3.4,0,0,1-1.41,5.69m2,1.17a3.3,3.3,0,0,0-1.36-.26,3.38,3.38,0,0,0-2,.64l-.12,0a3.72,3.72,0,0,0,1.14-1,3.9,3.9,0,0,0,.5-.12,3.42,3.42,0,0,0,1.83.64.52.52,0,0,0,0,.19m-1.36,6.53a3,3,0,0,1-1.29-.29l0,0a3.13,3.13,0,0,0,.38-.45H5106a.2.2,0,0,0,.19-.19.23.23,0,0,0-.19-.21h-.9c0-.09.12-.24.17-.36h1.52c.12,0,.19-.07.19-.21a.17.17,0,0,0-.19-.17h-1.38c0-.17.07-.33.09-.52h.41c.12,0,.21-.07.21-.17a.21.21,0,0,0-.21-.22h-.38v-.1a3.82,3.82,0,0,0,0-.52h.41a.18.18,0,0,0,.19-.19.17.17,0,0,0-.19-.17h-.48a4,4,0,0,0-1-1.74,1.71,1.71,0,0,0-.45-.38,3.26,3.26,0,0,1,1.69-.5,3.26,3.26,0,0,1,3.21,3.24,3.21,3.21,0,0,1-3.21,3.19M5110,1410s0,0,0,0h.21a3.05,3.05,0,0,1,2,.91,3.15,3.15,0,0,1,1,2.26,3.22,3.22,0,0,1-3.22,3.24,2.82,2.82,0,0,1-.88-.14v0a5.62,5.62,0,0,0-.55-.76h.45a.19.19,0,0,0,.19-.19.21.21,0,0,0-.19-.19h-.83a5.81,5.81,0,0,0-.81-.5h1.41a.17.17,0,0,0,.17-.19.18.18,0,0,0-.17-.19h-1.55a5.94,5.94,0,0,0,0-.67h1.19a.19.19,0,0,0,0-.38h-1.29c0-.19-.12-.41-.19-.62h1.1a.17.17,0,0,0,.19-.17.18.18,0,0,0-.19-.19h-.78a3.52,3.52,0,0,0,1-.69,3.85,3.85,0,0,0,.91-1.45,3.78,3.78,0,0,1,.93-.12m1.62-1.24h-2.41a2.86,2.86,0,0,1,2.41-1.36,2.75,2.75,0,0,1,2,.81,2.94,2.94,0,0,1,.81,2,2.88,2.88,0,0,1-.52,1.64s0,0,0,0h0a3.91,3.91,0,0,1-.43.45,3.49,3.49,0,0,0-.62-1.26h0a.21.21,0,0,0,.21-.19.19.19,0,0,0-.21-.19h-.38a3,3,0,0,0-.9-.64h.93a.2.2,0,0,0,.19-.21.17.17,0,0,0-.19-.17H5110a4.27,4.27,0,0,0-.79.07,4.63,4.63,0,0,0,0-.6h2.41a.18.18,0,1,0,0-.36m-9.19,2h-3.17c.12-.17.24-.36.36-.55h2.17a.18.18,0,0,0,.19-.17.23.23,0,0,0-.19-.21h-2c.1-.17.19-.38.31-.62h.9a.16.16,0,0,0,.17-.17.17.17,0,0,0-.17-.19h-.74a11.31,11.31,0,0,0,.81-2.79,5.83,5.83,0,0,1,.67,0,3,3,0,0,1,1.31.26,2.79,2.79,0,0,1,1,.69,3.35,3.35,0,0,1,1,2.36,3.3,3.3,0,0,1-3.33,3.29,3.11,3.11,0,0,1-1.83-.57h1.86a.17.17,0,0,0,.19-.17.19.19,0,0,0-.19-.19h-2.31a1,1,0,0,1-.26-.29v0h0a.89.89,0,0,1-.17-.24h3.41a.17.17,0,0,0,.19-.17.18.18,0,0,0-.19-.19m-4.12,7.29a3.07,3.07,0,0,1-1.57-.43,2.19,2.19,0,0,0,.1-.69.93.93,0,0,0,0-.26h.48a.23.23,0,0,0,.21-.21.19.19,0,0,0-.21-.19h-.55c-.07-.14-.14-.31-.21-.45h.21a.19.19,0,0,0,.17-.19c0-.1-.07-.21-.17-.21h-.48s-.07-.07-.09-.1a3.12,3.12,0,0,0-.76-.52h1.33a.16.16,0,0,0,.17-.17.17.17,0,0,0-.17-.19h-1.52a9.31,9.31,0,0,0,1.09-.69,0,0,0,0,0,0,0h2a.21.21,0,0,0,.19-.21.18.18,0,0,0-.19-.17h-1.57a12.56,12.56,0,0,0,1.81-1.74,1.82,1.82,0,0,1,.36,0,1.47,1.47,0,0,1,1,2.45,3.48,3.48,0,0,0,1,2.45,3.24,3.24,0,0,1-2.69,1.45m-2.55.36a2,2,0,0,0-.36-.45,2.29,2.29,0,0,0-1.69-.72,2.36,2.36,0,0,0-1.24.36,2.6,2.6,0,0,0,.29-1.1.75.75,0,0,0,0-.33,2,2,0,0,1,1.79-1.17,2,2,0,0,1,1.38.57,1.91,1.91,0,0,1-.12,2.84m.29.37a2.43,2.43,0,0,0,.57-.68,3.68,3.68,0,0,0,4.65-1.08,2.23,2.23,0,0,0,.44.29,4,4,0,0,0,4,4.89,3.79,3.79,0,0,0,3.78-2.75l.54.46a4,4,0,0,0,2.27.62,3.6,3.6,0,0,0,3.53-3.48,2.93,2.93,0,0,0,2.13-4.48,4.68,4.68,0,0,1,.8-.41l0-.26c.15-.72-.53-.55-.73-.92-.2-.64,1.73-.31,1.78-.31a2.48,2.48,0,0,0-1.77-2.15c-.66-.2-.36-1.14-1-1.46l.45-.36a11.94,11.94,0,0,0-1.4-.88c1.44,0,2.18-1.1,3-2.14-1.53-.11-1.78-.16-2.65-1.45-1.07.51-.92-.27-1.9-.45-.69-.76-1-.2-1.34-1.16l-1-.21a3.16,3.16,0,0,1-1.44.53,3.84,3.84,0,0,0-.75-1.31,3.18,3.18,0,0,0,.5-1.92,3.38,3.38,0,0,0-3.3-3.13,3.62,3.62,0,0,0-3.42-2.48,3.35,3.35,0,0,1-5.5,1.87,3.62,3.62,0,0,0-2.17.66,11.21,11.21,0,0,0-5.89-1.82,11.65,11.65,0,0,0-9.34,4.32l-.78-1c-1,.84-1.43,1.15-2.3,0-2.19.83-1.52-1.34-3.18-1.75a7.15,7.15,0,0,0-1.69.12,5.85,5.85,0,0,1,1.26,1.68c-.22.19-1,0-1.22,0l-.65.54c.6.38,2.93,1.41,2,2.46-.38.26-.65,0-.92-.29-1.13-1.21-1.64-2.49-3.36-3a3.28,3.28,0,0,0-4,1.66,3.75,3.75,0,0,1,1.54,0c.89.59-1.43.87-1.47.88.07.55.24,1.14-.52.92a27.31,27.31,0,0,1-2.83-1.13,13.1,13.1,0,0,1,.92,2.64c-.14.56.19,1.12.1,1.76-.1,1.08.9,1,1.67,1l-.8.42a2.36,2.36,0,0,1-.43,2.72c-.89,1-2.23,1-3.47,1,.12.92.14.94-.56,1.58a2.73,2.73,0,0,1,.48,2c.63,0,1.22-.19,1.21.56.37.55.26.54-.31.76a1.58,1.58,0,0,1-.23,1.6,3.75,3.75,0,0,1-1,.87,4.72,4.72,0,0,1,.92,2.38c.94-.54,1.65-1.2,2.39-.17a2.46,2.46,0,0,1,1.19-.23c.28.07.48.33.69.9,1-.53,1.73-.75,2.07-.49s.33.83.1,1.91a2.31,2.31,0,0,0,1.43-.31l-.1.48h.15a2.93,2.93,0,0,0,5,1.74,2.89,2.89,0,0,0,2.41,2.11,3.2,3.2,0,0,0,1.56-.17,2.76,2.76,0,0,0,2,1.29,2.72,2.72,0,0,0,1.81-.36,2.38,2.38,0,0,0,1.56.62,2.25,2.25,0,0,0,2.32-2.31,2.8,2.8,0,0,1,4.44.68,2.09,2.09,0,0,0,2.09-1.56,2.43,2.43,0,0,0,1.55.45,2.52,2.52,0,0,0,2.25-3.38" transform="translate(-5056.53 -1392.04)"/><path class="cls-1" d="M5089.64,1400.32h.71a5.05,5.05,0,0,1-.55.36l-.17-.36m3.67-3.72a1.33,1.33,0,0,0,1.1,0,1.48,1.48,0,0,0,.62-.26,6.54,6.54,0,0,1-1.74,3.14c-.81.17-1.07-.14-1.17-.26a4.76,4.76,0,0,0,1.19-2.64m.64-1c.74-.22,1.14-.1,1.17.07s-.17.47-.81.62c-.48.17-.79.07-.88,0a.21.21,0,0,1-.1-.21.88.88,0,0,1,.62-.43m-.33,7.79a3.65,3.65,0,0,0,.5,0,.21.21,0,0,0,.19-.22c0-.09-.12-.17-.22-.14l-.48,0a4.27,4.27,0,0,1-1.88-.43h2.33a.19.19,0,0,0,0-.38h-3c-.14-.12-.31-.24-.45-.38h2.86c.1,0,.22-.07.22-.17a.21.21,0,0,0-.22-.19h-3.24c-.1-.12-.17-.26-.26-.38h3a.18.18,0,0,0,.17-.19.16.16,0,0,0-.17-.17h-.52a7.69,7.69,0,0,0,2.93-4.72s.07-.33,0-.45c-.1-.38-.64-.62-1.62-.33a1.24,1.24,0,0,0-.88.69v.26a5.13,5.13,0,0,1-2.14,3.79h-1.33l-.07-.31h.36c.07,0,.14-.07.14-.19s-.07-.19-.14-.19h-.43a.66.66,0,0,1,0-.21h.24a.23.23,0,0,0,.21-.21c0-.1-.12-.17-.21-.17h-.26v-.19h.4a.16.16,0,0,0,.17-.17c0-.12-.07-.21-.17-.21h-.38a.26.26,0,0,0,0-.12h.45c.07,0,.14-.12.14-.21s-.07-.19-.14-.19h-.36a.2.2,0,0,0-.14-.19.23.23,0,0,0-.24.14,4.57,4.57,0,0,0-.14,1.14,4.83,4.83,0,0,0,1.36,3.34,4.68,4.68,0,0,0,3.33,1.36" transform="translate(-5056.53 -1392.04)"/><path class="cls-1" d="M5080.31,1402.32h.62a.17.17,0,0,0,.17-.19.18.18,0,0,0-.17-.19h-.62a.19.19,0,0,0-.19.19.18.18,0,0,0,.19.19" transform="translate(-5056.53 -1392.04)"/><path class="cls-1" d="M5074.64,1402.63h.43c.09,0,.17-.12.17-.21a.16.16,0,0,0-.17-.17h-.43a.16.16,0,0,0-.17.17c0,.1.07.21.17.21" transform="translate(-5056.53 -1392.04)"/><path class="cls-1" d="M5070.33,1405.21h.43a.16.16,0,0,0,.17-.17c0-.12-.07-.21-.17-.21h-.43a.19.19,0,0,0-.17.21.16.16,0,0,0,.17.17" transform="translate(-5056.53 -1392.04)"/><path class="cls-1" d="M5074.64,1403.54h.43c.09,0,.17-.12.17-.21a.18.18,0,0,0-.17-.19h-.43a.18.18,0,0,0-.17.19c0,.09.07.21.17.21" transform="translate(-5056.53 -1392.04)"/><path class="cls-1" d="M5075.09,1404.49a.23.23,0,0,0,.19.21h.43c.09,0,.17-.12.17-.21a.19.19,0,0,0-.17-.19h-.43a.21.21,0,0,0-.19.19" transform="translate(-5056.53 -1392.04)"/><path class="cls-1" d="M5077.69,1406.85h-.4c-.1,0-.21.07-.21.17a.23.23,0,0,0,.21.19h.4a.19.19,0,0,0,.19-.19.17.17,0,0,0-.19-.17" transform="translate(-5056.53 -1392.04)"/><path class="cls-1" d="M5072.26,1408.69h.43a.25.25,0,0,0,.21-.21.23.23,0,0,0-.21-.19h-.43a.19.19,0,0,0-.17.19c0,.09.07.21.17.21" transform="translate(-5056.53 -1392.04)"/><path class="cls-1" d="M5072.42,1409.66a.17.17,0,0,0,.19.17h.41c.09,0,.22-.07.22-.17a.23.23,0,0,0-.22-.21h-.41a.19.19,0,0,0-.19.21" transform="translate(-5056.53 -1392.04)"/><path class="cls-1" d="M5077.14,1410.69a.16.16,0,0,0-.17-.17h-.4a.17.17,0,0,0-.19.17.19.19,0,0,0,.19.19h.4a.19.19,0,0,0,.17-.19" transform="translate(-5056.53 -1392.04)"/><path class="cls-1" d="M5077.57,1411.59a.17.17,0,0,0-.19-.17h-.4a.18.18,0,0,0-.19.17.21.21,0,0,0,.19.19h.4a.19.19,0,0,0,.19-.19" transform="translate(-5056.53 -1392.04)"/><path class="cls-1" d="M5078,1412.5a.19.19,0,0,0-.17-.19h-.43a.19.19,0,0,0,0,.38h.43a.19.19,0,0,0,.17-.19" transform="translate(-5056.53 -1392.04)"/><path class="cls-1" d="M5077.81,1413.4a.18.18,0,0,0,.17.19h.43a.19.19,0,1,0,0-.38H5078a.18.18,0,0,0-.17.19" transform="translate(-5056.53 -1392.04)"/><path class="cls-1" d="M5080.76,1414.6h.43a.17.17,0,0,0,.17-.19.16.16,0,0,0-.17-.17h-.43a.16.16,0,0,0-.17.17.17.17,0,0,0,.17.19" transform="translate(-5056.53 -1392.04)"/><path class="cls-1" d="M5080.64,1415.48h.41a.19.19,0,0,0,.21-.19.21.21,0,0,0-.21-.19h-.41a.21.21,0,0,0-.19.19.19.19,0,0,0,.19.19" transform="translate(-5056.53 -1392.04)"/><path class="cls-1" d="M5072.35,1414.38a.21.21,0,0,0-.19-.19h-.4a.19.19,0,0,0-.19.19.18.18,0,0,0,.19.19h.4a.19.19,0,0,0,.19-.19" transform="translate(-5056.53 -1392.04)"/><path class="cls-1" d="M5072.09,1415.81h.4a.18.18,0,0,0,.19-.19.19.19,0,0,0-.19-.19h-.4a.2.2,0,0,0-.19.19.19.19,0,0,0,.19.19" transform="translate(-5056.53 -1392.04)"/><path class="cls-1" d="M5072.26,1416.53a.21.21,0,0,0,.22.19h.43a.19.19,0,0,0,0-.38h-.43a.21.21,0,0,0-.22.19" transform="translate(-5056.53 -1392.04)"/><path class="cls-1" d="M5077,1416.81c0-.1-.1-.17-.22-.17h-.4a.18.18,0,0,0-.19.17.19.19,0,0,0,.19.19h.4a.19.19,0,0,0,.22-.19" transform="translate(-5056.53 -1392.04)"/><path class="cls-1" d="M5071.76,1418.62a.16.16,0,0,0,.17-.17c0-.12-.07-.21-.17-.21h-.43c-.1,0-.17.1-.17.21a.16.16,0,0,0,.17.17Z" transform="translate(-5056.53 -1392.04)"/><path class="cls-1" d="M5072.14,1419.38a.19.19,0,0,0-.21-.19h-.4a.19.19,0,0,0-.19.19.18.18,0,0,0,.19.17h.4c.12,0,.21-.07.21-.17" transform="translate(-5056.53 -1392.04)"/><path class="cls-1" d="M5072.35,1420.38h-.43a.16.16,0,0,0-.17.17.19.19,0,0,0,.17.21h.43a.21.21,0,0,0,.19-.21.18.18,0,0,0-.19-.17" transform="translate(-5056.53 -1392.04)"/><path class="cls-1" d="M5076.71,1421.62h-.41a.17.17,0,0,0-.19.17.19.19,0,0,0,.19.21h.41a.21.21,0,0,0,.19-.21.18.18,0,0,0-.19-.17" transform="translate(-5056.53 -1392.04)"/><path class="cls-1" d="M5081.52,1417.69h-.43a.17.17,0,0,0-.17.19.16.16,0,0,0,.17.17h.43a.16.16,0,0,0,.17-.17.17.17,0,0,0-.17-.19" transform="translate(-5056.53 -1392.04)"/><path class="cls-1" d="M5082.78,1422.34h-.21a.2.2,0,0,0-.19.19.18.18,0,0,0,.19.17h.21c.1,0,.21-.07.21-.17a.23.23,0,0,0-.21-.19" transform="translate(-5056.53 -1392.04)"/><path class="cls-1" d="M5094,1420.22h-.21a.25.25,0,0,0-.22.21.23.23,0,0,0,.22.19h.21a.2.2,0,0,0,.19-.19.23.23,0,0,0-.19-.21" transform="translate(-5056.53 -1392.04)"/><path class="cls-1" d="M5094.07,1415.71h-.24a.18.18,0,0,0-.19.17.21.21,0,0,0,.19.19h.24a.18.18,0,0,0,.17-.19.16.16,0,0,0-.17-.17" transform="translate(-5056.53 -1392.04)"/><path class="cls-1" d="M5084.52,1415.91a.18.18,0,0,0-.19-.17h-.4a.17.17,0,0,0-.19.17.19.19,0,0,0,.19.22h.4a.21.21,0,0,0,.19-.22" transform="translate(-5056.53 -1392.04)"/><path class="cls-1" d="M5084.83,1416.41h-.43a.16.16,0,0,0-.17.17.19.19,0,0,0,.17.21h.43c.1,0,.17-.1.17-.21a.16.16,0,0,0-.17-.17" transform="translate(-5056.53 -1392.04)"/><path class="cls-1" d="M5084.57,1417.07h-.43a.21.21,0,0,0-.19.21.18.18,0,0,0,.19.17h.43a.16.16,0,0,0,.17-.17c0-.12-.07-.21-.17-.21" transform="translate(-5056.53 -1392.04)"/><path class="cls-1" d="M5081.4,1418.38H5081a.23.23,0,0,0-.21.19.25.25,0,0,0,.21.21h.41a.21.21,0,0,0,.19-.21.19.19,0,0,0-.19-.19" transform="translate(-5056.53 -1392.04)"/><path class="cls-1" d="M5080.86,1419.29h-.43a.2.2,0,0,0-.19.19.23.23,0,0,0,.19.21h.43c.09,0,.17-.12.17-.21a.18.18,0,0,0-.17-.19" transform="translate(-5056.53 -1392.04)"/><path class="cls-1" d="M5076.52,1417.72a.2.2,0,0,0,.19.19h.4a.19.19,0,0,0,.19-.19.17.17,0,0,0-.19-.17h-.4a.18.18,0,0,0-.19.17" transform="translate(-5056.53 -1392.04)"/><path class="cls-1" d="M5076.88,1418.79a.16.16,0,0,0,.17.17h.41a.17.17,0,0,0,.19-.17.19.19,0,0,0-.19-.21H5077a.19.19,0,0,0-.17.21" transform="translate(-5056.53 -1392.04)"/><path class="cls-1" d="M5089.31,1397.23h.5c.07,0,.14-.1.14-.21a.16.16,0,0,0-.14-.17h-.5a.16.16,0,0,0-.17.17.19.19,0,0,0,.17.21" transform="translate(-5056.53 -1392.04)"/><path class="cls-1" d="M5080.5,1403.14a.19.19,0,0,0,.19.19h.52a.19.19,0,0,0,.19-.19.18.18,0,0,0-.19-.17h-.52a.18.18,0,0,0-.19.17" transform="translate(-5056.53 -1392.04)"/><path class="cls-1" d="M5081,1404.16a.17.17,0,0,0,.19.17h.45a.17.17,0,0,0,.19-.17.18.18,0,0,0-.19-.19h-.45a.18.18,0,0,0-.19.19" transform="translate(-5056.53 -1392.04)"/><path class="cls-1" d="M5081.59,1405.16a.19.19,0,0,0,.19.19h.55a.19.19,0,1,0,0-.38h-.55a.19.19,0,0,0-.19.19" transform="translate(-5056.53 -1392.04)"/><path class="cls-1" d="M5082.26,1406.16a.19.19,0,0,0,.19.21h.41a.21.21,0,0,0,.19-.21.18.18,0,0,0-.19-.17h-.41a.17.17,0,0,0-.19.17" transform="translate(-5056.53 -1392.04)"/><path class="cls-1" d="M5083.19,1407.38h.57a.21.21,0,0,0,.19-.19.19.19,0,0,0-.19-.19h-.57a.17.17,0,0,0-.17.19.18.18,0,0,0,.17.19" transform="translate(-5056.53 -1392.04)"/><path class="cls-1" d="M5083.76,1408.21a.19.19,0,0,0,.19.19h.64a.18.18,0,0,0,.17-.19c0-.12-.07-.21-.17-.21H5084a.19.19,0,0,0-.19.21" transform="translate(-5056.53 -1392.04)"/><path class="cls-1" d="M5085.4,1409.4h.52a.19.19,0,0,0,.21-.19.21.21,0,0,0-.21-.19h-.52a.18.18,0,0,0-.17.19.17.17,0,0,0,.17.19" transform="translate(-5056.53 -1392.04)"/><path class="cls-1" d="M5086.31,1410.4h.59a.17.17,0,0,0,.19-.17.18.18,0,0,0-.19-.19h-.59a.17.17,0,0,0-.17.19.16.16,0,0,0,.17.17" transform="translate(-5056.53 -1392.04)"/><path class="cls-1" d="M5088,1411.43h.52a.19.19,0,0,0,0-.38H5088a.19.19,0,0,0,0,.38" transform="translate(-5056.53 -1392.04)"/><path class="cls-1" d="M5090.79,1412.07h-.67a.19.19,0,0,0-.19.17.19.19,0,0,0,.19.19h.67a.21.21,0,0,0,.21-.19c0-.1-.12-.17-.21-.17" transform="translate(-5056.53 -1392.04)"/><path class="cls-1" d="M5094.17,1413.07h-.86a.19.19,0,0,0-.19.19.18.18,0,0,0,.19.17h.86a.18.18,0,0,0,.19-.17.19.19,0,0,0-.19-.19" transform="translate(-5056.53 -1392.04)"/><path class="cls-1" d="M5097.74,1414.38h-.33a.17.17,0,0,0-.19.19.17.17,0,0,0,.19.17h.33a.18.18,0,0,0,.19-.17.19.19,0,0,0-.19-.19" transform="translate(-5056.53 -1392.04)"/><path class="cls-1" d="M5103,1410a.23.23,0,0,0-.21-.21h-.33c-.1,0-.17.12-.17.21a.16.16,0,0,0,.17.17h.33c.12,0,.21-.07.21-.17" transform="translate(-5056.53 -1392.04)"/><path class="cls-1" d="M5102.5,1405.18a.19.19,0,0,0,.19.19h.33a.19.19,0,0,0,.19-.19.23.23,0,0,0-.19-.21h-.33a.23.23,0,0,0-.19.21" transform="translate(-5056.53 -1392.04)"/><path class="cls-1" d="M5103,1404.42h.33a.21.21,0,0,0,.19-.21.2.2,0,0,0-.19-.19H5103a.2.2,0,1,0,0,.4" transform="translate(-5056.53 -1392.04)"/><path class="cls-1" d="M5105.15,1399.37h-.36a.19.19,0,0,0-.19.19.21.21,0,0,0,.19.19h.36a.21.21,0,0,0,.19-.19.19.19,0,0,0-.19-.19" transform="translate(-5056.53 -1392.04)"/><path class="cls-1" d="M5106,1400.75a.19.19,0,1,0,0-.38h-.33a.19.19,0,1,0,0,.38Z" transform="translate(-5056.53 -1392.04)"/><path class="cls-1" d="M5106,1401.51a.17.17,0,0,0,.17.19h.33a.17.17,0,0,0,.19-.19.17.17,0,0,0-.19-.17h-.33a.16.16,0,0,0-.17.17" transform="translate(-5056.53 -1392.04)"/><path class="cls-1" d="M5106.15,1402.3h-.33a.18.18,0,0,0-.19.17.19.19,0,0,0,.19.19h.33a.17.17,0,0,0,.19-.19.17.17,0,0,0-.19-.17" transform="translate(-5056.53 -1392.04)"/><path class="cls-1" d="M5105.48,1396.7h1.14a.16.16,0,0,0,.17-.17c0-.09-.07-.21-.17-.21h-1.14c-.1,0-.17.12-.17.21a.16.16,0,0,0,.17.17" transform="translate(-5056.53 -1392.04)"/><path class="cls-1" d="M5102.91,1396.25h.5a.19.19,0,0,0,.19-.21.17.17,0,0,0-.19-.17h-.5a.17.17,0,0,0-.19.17.19.19,0,0,0,.19.21" transform="translate(-5056.53 -1392.04)"/><path class="cls-1" d="M5100.17,1397.73h.33a.18.18,0,0,0,.17-.19.16.16,0,0,0-.17-.17h-.33a.17.17,0,0,0-.19.17.19.19,0,0,0,.19.19" transform="translate(-5056.53 -1392.04)"/><path class="cls-1" d="M5109.05,1402.42a.21.21,0,0,0-.21.21c0,.1.09.17.21.17h.33a.16.16,0,0,0,.17-.17c0-.12-.07-.21-.17-.21Z" transform="translate(-5056.53 -1392.04)"/><path class="cls-1" d="M5108.27,1403.54h-.33a.16.16,0,0,0-.17.17.17.17,0,0,0,.17.19h.33a.18.18,0,0,0,.19-.19.17.17,0,0,0-.19-.17" transform="translate(-5056.53 -1392.04)"/><path class="cls-1" d="M5107.08,1409.59c0-.12-.07-.21-.17-.21h-.33a.19.19,0,0,0-.19.21.17.17,0,0,0,.19.17h.33a.16.16,0,0,0,.17-.17" transform="translate(-5056.53 -1392.04)"/><path class="cls-1" d="M5107.58,1410.28a.19.19,0,0,0-.19.17.19.19,0,0,0,.19.21h.24c.09,0,.17-.07.17-.21a.16.16,0,0,0-.17-.17Z" transform="translate(-5056.53 -1392.04)"/><path class="cls-1" d="M5107.15,1411h-.36a.21.21,0,0,0-.19.21.19.19,0,0,0,.19.19h.36a.18.18,0,0,0,.17-.19c0-.09-.07-.21-.17-.21" transform="translate(-5056.53 -1392.04)"/><path class="cls-1" d="M5108.63,1412.43a.18.18,0,0,0,.19.17h.33a.18.18,0,0,0,.19-.17.19.19,0,0,0-.19-.19h-.33a.19.19,0,0,0-.19.19" transform="translate(-5056.53 -1392.04)"/><path class="cls-1" d="M5113.34,1410h.33a.21.21,0,0,0,.19-.21.18.18,0,0,0-.19-.17h-.33a.17.17,0,0,0-.19.17.19.19,0,0,0,.19.21" transform="translate(-5056.53 -1392.04)"/><path class="cls-1" d="M5109,1413.4a.18.18,0,0,0,.17.19h.33a.19.19,0,1,0,0-.38h-.33a.18.18,0,0,0-.17.19" transform="translate(-5056.53 -1392.04)"/><path class="cls-1" d="M5115.79,1414.45a.19.19,0,0,0-.19-.19h-.33a.18.18,0,0,0-.17.19.17.17,0,0,0,.17.19h.33a.18.18,0,0,0,.19-.19" transform="translate(-5056.53 -1392.04)"/><path class="cls-1" d="M5115.87,1415.21h-.33a.19.19,0,0,0-.19.19.18.18,0,0,0,.19.17h.33c.1,0,.21-.07.21-.17a.21.21,0,0,0-.21-.19" transform="translate(-5056.53 -1392.04)"/><path class="cls-1" d="M5109.39,1414.45a.17.17,0,0,0,.17.19h.36a.17.17,0,0,0,.17-.19.18.18,0,0,0-.17-.19h-.36a.18.18,0,0,0-.17.19" transform="translate(-5056.53 -1392.04)"/><path class="cls-1" d="M5109.63,1415.33a.17.17,0,0,0,.19.19h.33a.17.17,0,0,0,.19-.19.19.19,0,0,0-.19-.19h-.33a.19.19,0,0,0-.19.19" transform="translate(-5056.53 -1392.04)"/><path class="cls-1" d="M5111.2,1418.1h-.36a.19.19,0,1,0,0,.38h.36a.19.19,0,0,0,0-.38" transform="translate(-5056.53 -1392.04)"/><path class="cls-1" d="M5111.84,1419.1h-.33a.17.17,0,0,0-.19.17.19.19,0,0,0,.19.21h.33a.21.21,0,0,0,.19-.21.18.18,0,0,0-.19-.17" transform="translate(-5056.53 -1392.04)"/><path class="cls-1" d="M5102.93,1410.9a.16.16,0,0,0,.17.17h.33a.17.17,0,0,0,.19-.17.18.18,0,0,0-.19-.19h-.33a.17.17,0,0,0-.17.19" transform="translate(-5056.53 -1392.04)"/><path class="cls-1" d="M5102.93,1414.81a.18.18,0,0,0-.19-.19h-.36a.19.19,0,0,0-.19.19.21.21,0,0,0,.19.19h.36a.19.19,0,0,0,.19-.19" transform="translate(-5056.53 -1392.04)"/><path class="cls-1" d="M5103.1,1415.5h-.33c-.1,0-.17.1-.17.21a.16.16,0,0,0,.17.17h.33a.17.17,0,0,0,.19-.17.19.19,0,0,0-.19-.21" transform="translate(-5056.53 -1392.04)"/><path class="cls-1" d="M5104.84,1419h-.33a.23.23,0,0,0-.19.22.2.2,0,0,0,.19.19h.33a.21.21,0,0,0,.19-.19.23.23,0,0,0-.19-.22" transform="translate(-5056.53 -1392.04)"/><path class="cls-1" d="M5105.93,1420.22h-.36a.19.19,0,0,0,0,.38h.36a.19.19,0,0,0,0-.38" transform="translate(-5056.53 -1392.04)"/><path class="cls-1" d="M5097.74,1415.36h-.33a.21.21,0,0,0-.19.21.19.19,0,0,0,.19.19h.33a.21.21,0,0,0,.19-.19.23.23,0,0,0-.19-.21" transform="translate(-5056.53 -1392.04)"/><path class="cls-1" d="M5094.34,1400.9a.18.18,0,0,0-.19-.17h-.4c-.12,0-.21.07-.21.17a.21.21,0,0,0,.21.19h.4a.2.2,0,0,0,.19-.19" transform="translate(-5056.53 -1392.04)"/><path class="cls-1" d="M5094.22,1401.82h.43a.16.16,0,0,0,.17-.17.17.17,0,0,0-.17-.19h-.43a.19.19,0,0,0-.19.19.19.19,0,0,0,.19.17" transform="translate(-5056.53 -1392.04)"/><path class="cls-1" d="M5095.15,1402.59a.19.19,0,1,0,0-.38h-.4a.19.19,0,1,0,0,.38Z" transform="translate(-5056.53 -1392.04)"/><path class="cls-1" d="M5095.34,1402.92h-.41a.19.19,0,0,0-.19.19.17.17,0,0,0,.19.19h.41a.19.19,0,0,0,.19-.19.21.21,0,0,0-.19-.19" transform="translate(-5056.53 -1392.04)"/><path class="cls-1" d="M5094,1414.07h-.76a.17.17,0,0,0-.17.19.18.18,0,0,0,.17.19h.76a.21.21,0,0,0,.19-.19.19.19,0,0,0-.19-.19" transform="translate(-5056.53 -1392.04)"/><path class="cls-1" d="M5067.16,1401.09c.07.07.17,0,.26,0s0-.21,0-.26a4.66,4.66,0,0,1-.36-.31c-.07-.07-.17-.12-.24,0s-.12.17-.07.29a4.34,4.34,0,0,0,.43.36" transform="translate(-5056.53 -1392.04)"/><path class="cls-1" d="M5068.83,1398a3.27,3.27,0,0,1,.48.21.19.19,0,1,0,.19-.33,4.47,4.47,0,0,0-.52-.26.18.18,0,0,0-.24.12c0,.09,0,.19.09.26" transform="translate(-5056.53 -1392.04)"/><path class="cls-1" d="M5075.69,1397.87a2.75,2.75,0,0,0,.4.26.22.22,0,0,0,.26,0,.22.22,0,0,0,0-.26,2.49,2.49,0,0,0-.43-.26.22.22,0,0,0-.26,0c0,.12,0,.22.07.26" transform="translate(-5056.53 -1392.04)"/><path class="cls-1" d="M5062.92,1409.64a.24.24,0,0,0-.07-.26,3.68,3.68,0,0,1-.57-.38.17.17,0,0,0-.26,0,.19.19,0,0,0,0,.26,5.85,5.85,0,0,0,.64.43.23.23,0,0,0,.26-.07" transform="translate(-5056.53 -1392.04)"/><path class="cls-1" d="M5062.47,1415.45a3.72,3.72,0,0,1-.48,0c-.1,0-.22.07-.22.17a.19.19,0,0,0,.17.21,3.19,3.19,0,0,0,.52,0,.17.17,0,0,0,.19-.19.17.17,0,0,0-.19-.17" transform="translate(-5056.53 -1392.04)"/><path class="cls-1" d="M5066.14,1413.45c-.1,0-.19,0-.24.12a3.39,3.39,0,0,1-2.78,1.83c-.12,0-.19.1-.17.19a.17.17,0,0,0,.21.17,3.72,3.72,0,0,0,3.1-2,.21.21,0,0,0-.12-.26" transform="translate(-5056.53 -1392.04)"/><path class="cls-1" d="M5064.83,1414.21a.23.23,0,0,0,.17-.21.25.25,0,0,0-.21-.19,9.46,9.46,0,0,1-2,0,.21.21,0,0,0-.22.19c0,.09,0,.21.14.21a13.28,13.28,0,0,0,2.07,0" transform="translate(-5056.53 -1392.04)"/><path class="cls-1" d="M5113.32,1404.18a2.76,2.76,0,0,0,.48.12.19.19,0,0,0,.24-.12.24.24,0,0,0-.14-.24l-.48-.12a.22.22,0,0,0-.24.12.19.19,0,0,0,.14.24" transform="translate(-5056.53 -1392.04)"/><path class="cls-1" d="M5115,1404.49a4.34,4.34,0,0,0,1.36,0,.21.21,0,0,0,.14-.24.18.18,0,0,0-.24-.12,5,5,0,0,1-1.24,0,.18.18,0,0,0-.19.17.17.17,0,0,0,.17.19" transform="translate(-5056.53 -1392.04)"/><path class="cls-1" d="M5100.12,1420.37a1.05,1.05,0,0,1-1,1.06,1,1,0,0,1-1-1.06,1,1,0,0,1,1-1,1,1,0,0,1,1,1m-2.33,0a1.28,1.28,0,1,0,1.3-1.24,1.24,1.24,0,0,0-1.3,1.24" transform="translate(-5056.53 -1392.04)"/><path class="cls-1" d="M5098.83,1419.81h.29c.15,0,.32,0,.32.21s-.18.26-.35.26h-.27Zm-.21,1.3h.21v-.65h.24l.41.65h.21l-.41-.68a.34.34,0,0,0,.38-.38c0-.3-.15-.41-.5-.41h-.53Z" transform="translate(-5056.53 -1392.04)"/></svg>