<svg id="Layer_1" data-name="Layer 1" xmlns="http://www.w3.org/2000/svg" viewBox="0 0 109.21 19.08"><defs><style>.cls-1{fill:#231f20;}</style></defs><title>Incase</title><path class="cls-1" d="M3992.45,1218.41v-7.06a9.09,9.09,0,0,0-9.1-9.07h-9.1v9s0,0,0,0a9.08,9.08,0,0,0,9.1,9.08h5.31c-3.76-2-11.74-15.49-11.74-15.49s11.65,15.47,15.53,15.49h1A2.73,2.73,0,0,1,3992.45,1218.41Z" transform="translate(-3974.25 -1201.77)"/><path class="cls-1" d="M4074.22,1201.78a9.36,9.36,0,0,0-8.41,5.49c-.69-3.31-3.74-5.48-7.85-5.49s-6.59,1.86-7.43,4.06c0-.76,0-1.23,0-1.24a2.32,2.32,0,0,0-2.32-2.33h-2.34V1204a7.38,7.38,0,0,0-5.38-2.11,8.7,8.7,0,0,0-7.81,5.29,8.59,8.59,0,0,0-8.39-5.4,9.18,9.18,0,0,0-8.95,6.62c-.57-3.94-3.45-6.61-8-6.61a7.83,7.83,0,0,0-8.21,8.12v8.18h0v2.33h4.67V1209.8a3.36,3.36,0,0,1,3.54-3.46,3.18,3.18,0,0,1,3.43,3.46v8.29a2.34,2.34,0,0,0,2.34,2.33h2.34v-5.73a9.16,9.16,0,0,0,8.82,6.14,8.57,8.57,0,0,0,8.39-5.31,8.7,8.7,0,0,0,7.8,5.27,7.37,7.37,0,0,0,5.38-2.11l.07-.07a2.33,2.33,0,0,0,2.26,1.79h2.33s0-.92,0-2.32h0V1217c1.39,2.45,4.22,3.89,7.79,3.89,4.06,0,7.11-1.93,7.83-4.79a9.3,9.3,0,0,0,8.07,4.79c4.54,0,7.76-2.5,8.82-6.21h-5a4.24,4.24,0,0,1-3.86,2.12,4.64,4.64,0,0,1-4.57-3.6h13.77C4084.06,1206,4079.6,1201.78,4074.22,1201.78Zm-42,12.5h-4.09a4.27,4.27,0,0,1-3.82,2.33,5,5,0,0,1-4.68-5.23c0-2.93,2.09-5.34,4.68-5.34a4.37,4.37,0,0,1,3.79,2.29h4.15a9.94,9.94,0,0,0-.5,3A10.14,10.14,0,0,0,4032.21,1214.28Zm13.59-2.89a4.69,4.69,0,1,1-9.35,0s0,0,0,0,0,0,0,0a4.69,4.69,0,1,1,9.34,0,.13.13,0,0,0,0,0Zm12.52,5.23c-1.38,0-3.26-.57-3.9-2.13h-3.9c0-1.71,0-3.54,0-5.16,1.07,2.59,4.52,3.3,7.26,3.72,3.19.5,3.82.92,3.82,1.94S4060.19,1216.62,4058.32,1216.62Zm6.56-5.38c-1.37-1.22-3.62-1.77-6.35-2.22-2.27-.35-3.62-.67-3.62-1.62,0-.67.88-1.45,3-1.45,1.74,0,2.76.67,3,1.52h4.69A9.69,9.69,0,0,0,4064.88,1211.24Zm4.8-1.89a4.67,4.67,0,0,1,4.5-3.47,4.57,4.57,0,0,1,4.56,3.47Zm-73.88-7.07h-2.34v15.82a2.33,2.33,0,0,0,2.33,2.33h2.33s0-.93,0-2.32c0,0,0,0,0,0h0c0-4.39,0-13.46,0-13.49A2.32,2.32,0,0,0,3995.8,1202.28Z" transform="translate(-3974.25 -1201.77)"/></svg>