<svg id="Layer_1" data-name="Layer 1" xmlns="http://www.w3.org/2000/svg" viewBox="0 0 187.09 33.88"><defs><style>.cls-1{fill:#231f20;fill-rule:evenodd;}</style></defs><title>LOreal</title><polygon class="cls-1" points="24.84 27.57 24.84 31.55 0 31.55 0 4.22 4.47 4.22 4.47 27.57 24.84 27.57 24.84 27.57"/><polygon class="cls-1" points="21.37 14.16 26.34 4.72 21.61 4.72 17.89 14.16 21.37 14.16 21.37 14.16"/><path class="cls-1" d="M5068.43,1329.29a17.75,17.75,0,0,0-6.74-6.12,19.91,19.91,0,0,0-18.3,0,17.75,17.75,0,0,0-6.74,6.12,15.5,15.5,0,0,0,0,16.82,17.75,17.75,0,0,0,6.74,6.12,19.91,19.91,0,0,0,18.3,0,17.75,17.75,0,0,0,6.74-6.12,15.5,15.5,0,0,0,0-16.82Zm-3.87,15.1a13.55,13.55,0,0,1-5,4.81,14.29,14.29,0,0,1-13.72,0,13.55,13.55,0,0,1-5-4.81,12.66,12.66,0,0,1,0-13.18,13.55,13.55,0,0,1,5-4.81,14.29,14.29,0,0,1,13.72,0,13.54,13.54,0,0,1,5,4.81,12.66,12.66,0,0,1,0,13.18Z" transform="translate(-5006.44 -1320.58)"/><path class="cls-1" d="M5102.1,1336.58a7.5,7.5,0,0,1-3.54,3.43,5.68,5.68,0,0,1-2.93.81h0l8.7,11.3h-5l-8.41-10.93h-11v10.93h-4.47V1324.8h17.89a10.68,10.68,0,0,1,5.26,1.27,7.72,7.72,0,0,1,3.68,4.25,9.19,9.19,0,0,1-.23,6.27Zm-5-.19a4.33,4.33,0,0,0,1.45-3.4,4.77,4.77,0,0,0-1.64-3.37,4.84,4.84,0,0,0-3.26-.85H5080v8.45h13.66a5.17,5.17,0,0,0,3.45-.82Z" transform="translate(-5006.44 -1320.58)"/><polygon class="cls-1" points="121.49 15.9 121.49 19.62 106.34 19.62 106.34 27.57 126.71 27.57 126.71 31.55 101.86 31.55 101.86 4.22 126.71 4.22 126.71 8.2 106.34 8.2 106.34 15.9 121.49 15.9 121.49 15.9"/><polygon class="cls-1" points="121.74 0 115.03 0 112.3 3.48 121.74 0 121.74 0"/><path class="cls-1" d="M5141.91,1345.17l-3.54,7h-4.47l13.91-27.32h4.47l13.91,27.32h-4.47l-3.54-7Zm8.14-16-6.36,12.5h12.73l-6.36-12.5Z" transform="translate(-5006.44 -1320.58)"/><polygon class="cls-1" points="186.84 27.57 186.84 31.55 161.99 31.55 161.99 4.22 166.46 4.22 166.46 27.57 186.84 27.57 186.84 27.57"/><path class="cls-1" d="M5191.34,1330.28l0-.65h0a1,1,0,0,0-.27-.76.43.43,0,0,0-.28-.15.88.88,0,0,0,.46-.38,1.3,1.3,0,0,0,.18-.7,1.44,1.44,0,0,0-.22-.76,1.41,1.41,0,0,0-1.31-.5h-2v4.56h.77v-1.88h1.15a.79.79,0,0,1,.54.15c.28.33.15.76.2,1.12a1.4,1.4,0,0,0,.12.61h.86v-.14h0c-.16-.06-.17-.29-.19-.52Zm-.95-2a1.11,1.11,0,0,1-.65.15h-1.08V1327h0c.47,0,.95,0,1.42,0a.64.64,0,0,1,.51.36.73.73,0,0,1-.19.86Z" transform="translate(-5006.44 -1320.58)"/><path class="cls-1" d="M5193,1326.73a3.85,3.85,0,1,0,.52,1.93,3.88,3.88,0,0,0-.52-1.93Zm-.46,3.6a3.26,3.26,0,1,1,.44-1.63,3.29,3.29,0,0,1-.44,1.63Z" transform="translate(-5006.44 -1320.58)"/></svg>