<svg id="Layer_1" data-name="Layer 1" xmlns="http://www.w3.org/2000/svg" viewBox="0 0 81.5 29.33"><defs><style>.cls-1{fill:#231f20;}</style></defs><title>Nike</title><path class="cls-1" d="M4816.72,200.7l-60.44,16.37a13.28,13.28,0,0,1-3.5.5c-4.63,0-8.74-2.54-8.71-7.95a17.74,17.74,0,0,1,2.16-7.67c-5.3,6.23-10.39,14-10.44,19.73a6.84,6.84,0,0,0,2.34,5.51,11.34,11.34,0,0,0,7.66,2.8c3.84,0,7.64-1.54,10.63-2.73,5-2,60.54-26.12,60.54-26.12C4817.49,200.86,4817.39,200.53,4816.72,200.7Z" transform="translate(-4735.8 -200.65)"/></svg>