<svg id="Layer_1" data-name="Layer 1" xmlns="http://www.w3.org/2000/svg" viewBox="0 0 94.03 18.89"><defs><style>.cls-1{fill:#231f20;}</style></defs><title>Nixon</title><polygon class="cls-1" points="37.13 2.13 32.46 7.88 27.8 2.13 24.72 2.13 30.92 9.79 24.73 17.43 27.8 17.43 32.46 11.7 37.1 17.43 40.22 17.43 34.02 9.79 40.24 2.13 37.13 2.13"/><rect class="cls-1" x="18.5" y="2.13" width="2.51" height="15.31"/><polygon class="cls-1" points="11.25 13.2 2.26 2.13 0 2.13 0 17.43 2.51 17.43 2.51 6.34 11.49 17.43 13.76 17.43 13.76 2.13 11.25 2.13 11.25 13.2"/><polygon class="cls-1" points="71.26 13.2 62.26 2.13 60.01 2.13 60.01 17.43 62.52 17.43 62.52 6.34 71.5 17.43 73.77 17.43 73.77 2.13 71.26 2.13 71.26 13.2"/><path class="cls-1" d="M5078.64,1088.24a7.75,7.75,0,1,0,7.75,7.75A7.76,7.76,0,0,0,5078.64,1088.24Zm0,13a5.24,5.24,0,1,1,5.24-5.24A5.25,5.25,0,0,1,5078.64,1101.23Z" transform="translate(-5029.58 -1086.2)"/><path class="cls-1" d="M5117.94,1086.2c0,1.49,0,7.66,0,9.69a2.52,2.52,0,0,0,.94,2.17,13.87,13.87,0,0,1,2.34,2.21c1.11,1.49-1.23,3.36-4,3.35s-5.09-1.86-4-3.35a14.14,14.14,0,0,1,2.34-2.21,2.5,2.5,0,0,0,.94-2.17c0-2,0-8.2,0-9.69,0,0-8.4,10.15-4.75,16.39.93,1.49,2.75,2.5,5.47,2.5s4.53-1,5.46-2.5c3.65-6.24-4.75-16.39-4.75-16.39" transform="translate(-5029.58 -1086.2)"/></svg>