<svg id="Layer_1" data-name="Layer 1" xmlns="http://www.w3.org/2000/svg" viewBox="0 0 67.75 53.09"><defs><style>.cls-1{fill:#231f20;}</style></defs><title>PlayStation</title><path class="cls-1" d="M307.42,381.27a2.82,2.82,0,0,1,2.83-2.83,2.83,2.83,0,0,1,2.82,2.83,2.83,2.83,0,1,1-5.65,0m2.83,3.41a3.4,3.4,0,0,0,0-6.81,3.41,3.41,0,0,0-3.4,3.4,3.41,3.41,0,0,0,3.4,3.41" transform="translate(-247.25 -331.59)"/><path class="cls-1" d="M311.17,380.42a.5.5,0,0,1-.16.43.9.9,0,0,1-.5.12h-1v-1.07h1.11l.36.07a.46.46,0,0,1,.24.46m.75,2.43-.11-.17,0-.29,0-.48a.88.88,0,0,0-.13-.5l-.23-.19.29-.28a1,1,0,0,0,.15-.58.93.93,0,0,0-.55-.93,1.75,1.75,0,0,0-.72-.12h-1.77v3.78h.66v-1.55h1a1.09,1.09,0,0,1,.41.06.43.43,0,0,1,.21.41l0,.61,0,.29,0,.14,0,0H312v-.22l-.05,0Z" transform="translate(-247.25 -331.59)"/><path class="cls-1" d="M272.58,331.59v48.78l11,3.5V343c0-1.91.86-3.19,2.23-2.75,1.81.5,2.16,2.27,2.16,4.18v16.34c6.88,3.32,12.29,0,12.29-8.78,0-9-3.17-13-12.52-16.19a132.53,132.53,0,0,0-15.2-4.17" transform="translate(-247.25 -331.59)"/><path class="cls-1" d="M285.71,376.74l17.75-6.33c2-.72,2.32-1.74.69-2.27a12,12,0,0,0-6.61.34l-11.83,4.16V366l.68-.23a40.59,40.59,0,0,1,8.23-1.74,35.08,35.08,0,0,1,15.31,1.82c5.21,1.65,5.8,4.07,4.48,5.74s-4.57,2.86-4.57,2.86l-24.12,8.66v-6.39Z" transform="translate(-247.25 -331.59)"/><path class="cls-1" d="M252.34,376.07c-5.35-1.51-6.24-4.64-3.81-6.44a26.38,26.38,0,0,1,6.08-2.93l15.83-5.62v6.41l-11.38,4.08c-2,.73-2.32,1.74-.69,2.28a12,12,0,0,0,6.61-.34l5.46-2v5.74l-1.09.18a35.73,35.73,0,0,1-17-1.37" transform="translate(-247.25 -331.59)"/></svg>