<svg id="Layer_1" data-name="Layer 1" xmlns="http://www.w3.org/2000/svg" viewBox="0 0 81.4 38.83"><defs><style>.cls-1{fill:#231f20;}</style></defs><title>REI</title><path class="cls-1" d="M5252.8,1703.76l-6.52-6.52,3.66-3.66-.08-10.42h-10.11l-1.11.8v-2.78l10.42-10.34,9.95,9.87h2.15l8.91-8.75,8.91,8.83h1.51l-12.09-12-9.39,9.47-13-13-19.26,19.18-5.89-10.58,3.1,1.43-5.57-10.18-6,9.95,3.18-1-5.81,10.5,3.5-1.83-6.13,11.14,4.22-2-7.08,12h34.13v-4.3h.8l4.53,4.3Zm-29.92-21.08,3.58,2.07-1.27,1.27Zm8.35,19.17-4.93-8.59,4.93-4.85Zm11.14-9.07h-3.9v-1.67l3.9-3.74Z" transform="translate(-5204.34 -1665.01)"/><polygon class="cls-1" points="65.48 30.71 65.48 25.62 57.21 25.62 57.21 22.91 65.32 22.91 65.32 18.14 49.73 18.14 49.73 38.83 65.48 38.83 65.48 33.34 57.21 33.34 57.21 30.71 65.48 30.71"/><rect class="cls-1" x="69.46" y="18.14" width="6.92" height="20.69"/><path class="cls-1" d="M5284,1683.31a1.67,1.67,0,1,0,1.75,1.67A1.7,1.7,0,0,0,5284,1683.31Zm0,3.1a1.41,1.41,0,0,1-1.35-1.43,1.36,1.36,0,0,1,1.35-1.43,1.38,1.38,0,0,1,1.43,1.43A1.43,1.43,0,0,1,5284,1686.41Z" transform="translate(-5204.34 -1665.01)"/><path class="cls-1" d="M5284.78,1684.5c0-.32-.16-.56-.64-.56h-.8v2h.32v-.88h.32l.56.88h.32l-.56-.88C5284.62,1685.06,5284.78,1684.9,5284.78,1684.5Zm-1.11.32v-.64h.4c.24,0,.48.08.48.32s-.32.32-.56.32Z" transform="translate(-5204.34 -1665.01)"/></svg>