<svg id="Layer_1" data-name="Layer 1" xmlns="http://www.w3.org/2000/svg" viewBox="0 0 38.86 38.78"><defs><style>.cls-1{fill:#231f20;}</style></defs><title>Volcom</title><path class="cls-1" d="M5111.21,1653.34a19.39,19.39,0,1,0,19.43,19.39A19.43,19.43,0,0,0,5111.21,1653.34Zm0,36.72a17.33,17.33,0,1,1,17.36-17.33A17.37,17.37,0,0,1,5111.21,1690.06Z" transform="translate(-5091.78 -1653.34)"/><path class="cls-1" d="M5111.25,1657.74l-9.9,19.05,5.67,9.56h8.46l5.67-9.56-9.9-19.05Zm0,3.15,4.23,14-4.23,8.84Zm0,22.8v2.16h-3.95l-5.36-9.05,9.3-17.94v2l-4.23,14Zm5.11-9.31,3,3-7.56,6.49Z" transform="translate(-5091.78 -1653.34)"/><polygon class="cls-1" points="11.34 24.01 18.9 30.5 14.38 21.04 11.34 24.01"/></svg>
