<svg id="Layer_1" data-name="Layer 1" xmlns="http://www.w3.org/2000/svg" viewBox="0 0 99.57 20.38"><defs><style>.cls-1{fill:#231f20;}</style></defs><title>WeWork</title><path class="cls-1" d="M4735.47,1536.64a8.85,8.85,0,0,1,1.56.1,1.8,1.8,0,0,1,1.2,1.46,2.88,2.88,0,0,1-.1.84,26.69,26.69,0,0,1-1.71,3.33c-.55-.89-1.84-3.41-2.29-4.39a2.7,2.7,0,0,1-.29-.92c0-.31.61-.41,1.65-.41m-7.33,0a1.71,1.71,0,0,1,1.32,1.06c1.59,2.91,3.17,6.12,4.72,9.28a1.08,1.08,0,0,0,.75.2,1.09,1.09,0,0,0,.75-.2c.74-1.39,2.68-5.12,3.52-6.57,1,1.79,2.65,5.06,3.33,6.57a1.48,1.48,0,0,0,1.48,0c1.36-3,2.84-6,4.33-8.89.52-1,.74-1.31,1.81-1.51l.45-.08c.26-.26.19-.87-.1-1-.71.06-1.55.09-2.49.09s-1.58,0-2.65-.09c-.32.12-.32.78-.13,1l.55.11c.56.11.81.25.81.4a3.55,3.55,0,0,1-.3,1.08c-.51,1.29-1,2.66-1.8,4.28-.71-1.34-1.61-3.16-2.2-4.5a2.29,2.29,0,0,1-.26-.86c0-.14.45-.28,1.2-.42l.48-.08c.23-.12.26-.95-.1-1-2.07.06-3.68.09-5.72.09h-6.53c-1.36,0-2.39,0-3.72-.09-.33.14-.33.75-.11,1Z" transform="translate(-4727.39 -1526.8)"/><path class="cls-1" d="M4755.17,1536.5a1.51,1.51,0,0,1,1.71,1.53c0,.28-.06.56-.22.64a3,3,0,0,1-1.33.25h-1.2c-1,0-1.49,0-1.49-.42a2.51,2.51,0,0,1,2.52-2m0,10.68a6.35,6.35,0,0,0,5.66-3.19.71.71,0,0,0-.84-.65,3.35,3.35,0,0,1-3,1.45c-3,0-4.56-2-4.56-4.13,0-.45.07-.5.81-.5h6.2c1,0,1.17-.39,1.17-.92,0-2.15-1.81-4-5.18-4-4,0-7,2.74-7,6.27,0,3,2.36,5.7,6.72,5.7" transform="translate(-4727.39 -1526.8)"/><path class="cls-1" d="M4768.86,1536.64a8.87,8.87,0,0,1,1.56.1,1.8,1.8,0,0,1,1.2,1.46,3,3,0,0,1-.1.84,28.5,28.5,0,0,1-1.71,3.33c-.56-.89-1.84-3.41-2.3-4.39a2.76,2.76,0,0,1-.29-.92c0-.31.61-.41,1.64-.41m-7.33,0a1.7,1.7,0,0,1,1.32,1.06c1.58,2.91,3.17,6.12,4.72,9.28a1.49,1.49,0,0,0,1.49,0c.75-1.39,2.68-5.12,3.53-6.57,1,1.79,2.65,5.06,3.33,6.57a1.49,1.49,0,0,0,1.49,0c1.36-3,2.85-6,4.34-8.89.52-1,.74-1.31,1.81-1.51l.46-.08c.25-.26.19-.87-.1-1-.72.06-1.55.09-2.49.09s-1.58,0-2.65-.09c-.33.12-.33.78-.13,1l.55.11c.55.11.81.25.81.4a3.73,3.73,0,0,1-.29,1.08c-.52,1.29-1,2.66-1.81,4.28-.71-1.34-1.61-3.16-2.19-4.5a2.24,2.24,0,0,1-.26-.86c0-.14.45-.28,1.2-.42l.48-.08c.23-.12.26-.95-.1-1-2.07.06-3.69.09-5.72.09h-6.53c-1.35,0-2.39,0-3.72-.09-.32.14-.32.75-.1,1Z" transform="translate(-4727.39 -1526.8)"/><path class="cls-1" d="M4789.21,1536.5c1.84,0,2.74,2.34,2.78,5.06,0,2.52-.59,4.33-2.43,4.33s-2.94-2.16-2.94-5.09,1.17-4.3,2.59-4.3m0,10.68c4,0,7.43-1.93,7.43-6s-3.43-6-7.24-6-7.47,2.21-7.44,6.21,3.4,5.76,7.25,5.76" transform="translate(-4727.39 -1526.8)"/><path class="cls-1" d="M4802.15,1537.61c.2,0,.49,0,1.22.56a1.92,1.92,0,0,0,1.26.51,1.84,1.84,0,0,0,2.07-1.82,1.69,1.69,0,0,0-1.78-1.65c-1.35,0-2.29.92-3.17,1.39-.26-.05-.32-.14-.32-.33s.07-.64.12-1.2a.68.68,0,0,0-.57-.26,23.91,23.91,0,0,1-4.73,1.68.6.6,0,0,0,0,.84l.46.25c.61.34.61.67.61,1.79v4.22c0,2-.13,2.21-1.2,2.29l-.61.05a.68.68,0,0,0,0,1c1.07-.06,2.49-.09,3.82-.09,1.52,0,2.81,0,4.37.09a.69.69,0,0,0,0-1l-1-.08c-1.07-.09-1.2-.31-1.2-2.27v-4.3c0-1.06.16-1.68.62-1.68" transform="translate(-4727.39 -1526.8)"/><path class="cls-1" d="M4814.8,1545.81l-.42.09a.65.65,0,0,0,.13,1c.91-.05,2.07-.08,4-.08s3.07,0,4.07.08c.33-.11.39-.78.13-1l-.48-.09a4.08,4.08,0,0,1-1.91-.64,44.69,44.69,0,0,1-4.23-5.34,1,1,0,0,1-.24-.48.55.55,0,0,1,.19-.36,19,19,0,0,1,2.17-1.62,5.8,5.8,0,0,1,2.17-1l1-.2c.23-.22.2-.84-.13-1a54.82,54.82,0,0,1-6.11.39h-.77c-.32.12-.36.73-.07,1l.81.12c.29,0,.61.13.61.28s-.16.47-.78,1.11l-1.35,1.38a2.56,2.56,0,0,1-1.88.78c-.35,0-.46-.08-.46-.39v-8.77c0-1.76,0-2.94.1-4.08a.76.76,0,0,0-.55-.19,40.25,40.25,0,0,1-4.94,1.56.59.59,0,0,0,0,.84l.55.29c.64.34.64.64.64,1.77v12.29c0,2-.13,2.18-1.3,2.3l-.61.05a.68.68,0,0,0,0,1c1.13-.05,2.46-.08,3.95-.08s2.85,0,3.88.08a.68.68,0,0,0,0-1l-.51-.05c-1.14-.11-1.27-.34-1.27-2.3v-1.62c0-.53.16-.67.39-.67a1,1,0,0,1,.82.41l2.29,3a3.14,3.14,0,0,1,.55.9c0,.1-.19.16-.51.22" transform="translate(-4727.39 -1526.8)"/><path class="cls-1" d="M4825.28,1544.11a1.35,1.35,0,1,0,1.35,1.35,1.36,1.36,0,0,0-1.35-1.35m0,3a1.68,1.68,0,1,1,1.68-1.68,1.68,1.68,0,0,1-1.68,1.68" transform="translate(-4727.39 -1526.8)"/><path class="cls-1" d="M4825.61,1545.15a.23.23,0,0,0-.26-.23H4825v.46h.38a.23.23,0,0,0,.26-.23m0,1.16-.34-.61H4825v.61h-.36v-1.71h.8a.53.53,0,0,1,.58.55.49.49,0,0,1-.37.51l.38.65Z" transform="translate(-4727.39 -1526.8)"/></svg>