<svg data-name="Layer 1" xmlns="http://www.w3.org/2000/svg" viewBox="0 0 45.98 56.41"><path d="M25.37 4.9a12.07 12.07 0 0 1 8.86-4.91 12 12 0 0 1-2.92 9c-3.93 4.72-8.4 4-8.4 4s-.84-3.74 2.46-8.09zm-1.99 11.28c1.91 0 5.45-2.62 10.05-2.62 7.93 0 11 5.64 11 5.64a12.25 12.25 0 0 0-6.1 10.69c0 8.54 7.6 11.48 7.6 11.48s-5.31 15-12.49 15c-3.3 0-5.86-2.22-9.33-2.22s-7.05 2.3-9.34 2.3C8.22 56.45-.06 42.27-.06 30.87c0-11.22 7-17.1 13.58-17.1 4.33-.05 7.64 2.41 9.86 2.41z" fill="#231f20" fill-rule="evenodd"/></svg>