<svg id="Layer_1" data-name="Layer 1" xmlns="http://www.w3.org/2000/svg" viewBox="0 0 65.57 59.1"><defs><style>.cls-1{fill:#231f20}</style></defs><path class="cls-1" d="M4792.55 1687.38c-.67-2.09 1.76-5.88 7.34-5 0 0-2-2.6-8.32-2.09-7.05.61-13 5.78-18.63 8.53s-8.95 1.83-10-.84 1.85-5.5 7.37-5.35c-3.44-3.06-8.8-2.69-12.89-1.39-3.81 1.22-7.79 3.54-13.31 6v12.12h65.18v-11.69c-13.31 4.39-16.1 1.78-16.77-.25m-22.16-21.68c-5.51-.16-8.36 2.69-7.38 5.35s4.36 3.57 10 .83 11.58-7.93 18.63-8.51c6.33-.53 8.33 2.09 8.33 2.09-5.6-.85-8 2.94-7.34 5s3.45 4.65 16.76.22v-15.89h-65.16v15.48c5.52-2.48 9.48-4.79 13.29-6 4.11-1.32 9.47-1.68 12.9 1.39m17.7 38.98a4.65 4.65 0 1 0 4.65 4.64 4.65 4.65 0 0 0-4.65-4.64m0 1.75a2.9 2.9 0 1 1-2.9 2.9 2.9 2.9 0 0 1 2.9-2.9" transform="translate(-4743.76 -1654.87)"/><path class="cls-1" d="M7.64 49.94h1.8v9.01h-1.8z"/><path class="cls-1" d="M4747.14 1712.08h-1.58v-1.91h1.58a1 1 0 1 1 0 1.91m0-5.51a1 1 0 1 1 0 1.9h-1.58v-1.9zm2.73 1a2.72 2.72 0 0 0-2.73-2.7h-3.38v9h3.48a2.72 2.72 0 0 0 2.73-2.7 2.61 2.61 0 0 0-.78-1.84 2.67 2.67 0 0 0 .68-1.77m29.66 4.52H4778v-1.91h1.58a1 1 0 1 1 0 1.91m0-5.51a1 1 0 1 1 0 1.9H4778v-1.9zm2.73 1a2.72 2.72 0 0 0-2.73-2.7h-3.38v9h3.48a2.72 2.72 0 0 0 2.73-2.7 2.61 2.61 0 0 0-.78-1.84 2.67 2.67 0 0 0 .68-1.77" transform="translate(-4743.76 -1654.87)"/><path class="cls-1" d="M13.04 49.95h-1.8v9.01h4.69v-1.8h-2.89v-7.21zm6.14 0h-1.8v9.01h4.69v-1.8h-2.89v-7.21z"/><path class="cls-1" d="M4770.12 1711.13l.88-2.38.88 2.38zm.65-6.31l-3.67 9h2l.33-.9h3.08l.33.9h2l-3.67-9zm36.63 4.46v2.91a2.94 2.94 0 0 1-.4 0 2.9 2.9 0 1 1 0-5.79 2.94 2.94 0 0 1 1.36.35l.66-1.63a4.64 4.64 0 1 0-.71 8.63 4.58 4.58 0 0 0 .89-.36v-4.14z" transform="translate(-4743.76 -1654.87)"/><path class="cls-1" d="M55.4 49.95v4.99l-4.34-4.99h-.7v9.01h1.8v-5l4.35 5h.69v-9.01h-1.8z"/></svg>