<svg id="Layer_1" data-name="Layer 1" xmlns="http://www.w3.org/2000/svg" viewBox="0 0 26.95 42.21"><defs><style>.cls-1{fill:#231f20}</style></defs><path class="cls-1" d="M4442 196.05h-25.57v42.21h26.95v-42.21zm-1.37 39.46h-21.45V198.8h21.45z" transform="translate(-4416.43 -196.05)"/><path class="cls-1" d="M19.09 32.61h-.12v.74l-.88 2.04-.89-2.1v-.68h-.88v5.61h.88v-2.58l.56 1.34h.66l.55-1.32v2.56h.89v-5.61h-.77zM6.47 36.93h-.89v.38h-.81v-3.77h.81v.45h.89v-1.38H3.88v5.61h2.59v-1.29zm14.01-4.32v2.3h-.3v.93h.3v2.38h2.59v-1.29h-.89v.38h-.81v-1.47h1.44v-.93h-1.44v-1.37h.82v.45h.89v-1.38h-2.6z"/><path class="cls-1" d="M4432.14 228.67h-2.46v5.61h2.59v-5.61h-.12zm-.77 4.69h-.81v-3.76h.81z" transform="translate(-4416.43 -196.05)"/><path class="cls-1" d="M8.63 34.91h-.78v-2.3h-.89v2.3h-.3v.93h.3v2.38h.89v-2.38h.78v2.38h.89v-5.61h-.89v2.3z"/><path class="cls-1" d="M4428.61 231.81l.53-.6v-2.55h-2.59V231h-.29v.93h.3v2.38h.89v-2.37h.32l.79 2.37h.7v-.53zm-.36-.83h-.81v-1.38h.81zm-7.31-24.71l.85 3.1 2.1.66.12.5-2.19-.6.78 2.94 1.75-.25.22.34-1.72.34 1.13 1.6 1.6-.75.29.25-1.57.85 1.19.91 1.22-1 .34.22-1.1 1 1.33.42.7-.8.34.16-.63.85.82.29 1.15-1.24.31.18-1.37 1.43-3.35-1.15-1.82 2-.85 3.46.31 4.22h7.55v-.93h.36v.93h.25v-.93h.36v.93h.28v-1.65h-3.42l1.14-1.91.4-1.95-1.09-.22-.71.14-.08-.33.79-.15 1.51.28 2.4-.94.87.92 1.06 5.71h2.16v-.71h.36v.61h.25v-.71h.36v.71h.21v-1.65h-1.9l-.29-8.15.84-2.21v-2.13l-3.06-.76-.88-2 .67-1.21.61-.22.69.28.44.56.57-.38-.72-.62.51-.31.5.71 1-.46.2-.22-.19-.53-.07-.58-.53-1v-.56l-1.26-1.29-1.91.14.28-.82-.55-.5-2.44.61 1.11 1.64-.36.2-1.28-1.53-1.19 1.21 1.28 1.36-.23.3-1.3-1.3-.64 1.17 1.2 1.25-.18.32-1.14-1-.31 1 1.06.73-.15.36-1-.63-.09.82.88.37-.13.34-.74-.34v.69l1.65.21 2.24.3 1.45 1.11-.23 1.76-.86.29-.26-.34.78-.29.08-1.3-1.15-.84-2.11-.28-1.75-.19-.56-.55-.69-3.66-1.78-2.13-1.81-3.27-1.26 5.3 2.47.78-.13.34zm14.48-1a.35.35 0 1 1-.35.35.35.35 0 0 1 .34-.35z" transform="translate(-4416.43 -196.05)"/></svg>