<svg id="Layer_1" data-name="Layer 1" xmlns="http://www.w3.org/2000/svg" viewBox="0 0 99.56 36.84"><defs><style>.cls-1{fill:#231f20}</style></defs><path class="cls-1" d="M293.26 437.39c.51 0 1.77.15 4.49.25a3 3 0 0 0 3.29-3.46 22.09 22.09 0 0 1-6.09.79c-2.63 0-5.87.73-5.93 3s2.94 2.81 4.51 3.25c.43.1.6.45.31.68-.67.53-2.17 1.24-2.35 2.49-.25 1.78 1.36 3.17 3.41 3.13 2.73-.06 5.75-1.22 8.65-4.7.82-1 1.74-2.64 2.3-3.37a.83.83 0 0 1 .7-.37c.52.11 1.25.51 1.15 1.07-.15.86-2.49 3.54-.93 5.16a4.26 4.26 0 0 0 5.3.31c1.8-1.31 1.17-2.51.45-2.59-.51-.06-1.93 1.73-3.09.45-1-1.06 1.32-3.25 1.77-4 .65-1.13-1.89-2-3-3.37-.69-.92 1.1-3.75-1.14-4.49-.73-.24-3 1.12-2.19 5-1 3.87-8.86 10.63-9.91 7.91-.25-.67.42-1.77 2.21-2.15 3-.62 2.73-2.45 1.32-2.63a39.77 39.77 0 0 1-5.49-.91c-1-.11-1-1.5.22-1.48m-42.84 4.29a5.58 5.58 0 0 0-1.65 2.53 2.64 2.64 0 0 0 2.88 3.25c2.39 0 3.17-1.77 7.16-4.2a20.37 20.37 0 0 1 3.07-1.92c.22 0 .54.07.52.49-.34 1.59-.71 2.66-.3 4a1.63 1.63 0 0 0 2.47.86c1.52-1.15 1.54-1.81 3.52-4.4.33-.43 1.53-2.4 2.08-2.14s.33.86.25 1.36c-.42 2.43-1.47 6.27 3.33 5.68 1.14-.14 2.06-.91 1.19-1.73-.52-.49-1.11-.14-1.77-.29-1.54-.36 2.27-7.38.45-8.68-2.56-1.83-4.93 1.41-6.71 3.79-.7.94-1.22.52-1.68-.79s-3.55-.39-5.29.51c-2.79 1.44-7.93 6.24-8.41 3.85-.08-.41.59-1.34 1.84-1.79 1.47-.53 3.13-1 3.13-1.89 0-.68-.41-1.16-.85-1.14-2 .11-4.43.66-7.16-.09-.62 0-.89-1.57 1-1.36.49.05 1.57.13 5.7.21 2.9.06 3-2.12 2.58-3.27a17.88 17.88 0 0 1-6.2.64c-2.68 0-6.3.37-6.14 3 .13 2.17 3.18 2.77 4.76 2.95.45 0 .6.39.27.62" transform="translate(-215.44 -417.98)"/><path d="M241.57 436.08a1.64 1.64 0 0 1 1.48-1.28 31.06 31.06 0 0 1 3.41-1c2.27-.56 2.92-.43 3.22-2a1.92 1.92 0 0 0-.27-1.62s-5 1.55-5.94 1.82-.7-.54-.7-.54-.12.58.41-1.77c1.62-7.14.67-9-.62-10.12-3.26-2.7-15.18 2.9-23.7 9.63-2.84 2.47-4.49 3-2.63 5 1.65 1.65 2.72.41 2.72.41 1.56-1.23 4.94-4.69 7.16-6.34 3.16-2.34 7.53-5.72 11.4-6.63 3.07-.78 4 .12 3.58 3.25-.24 2.68-2.3 8.72-2.3 8.72s-3.17 1.42-4.12 1.77c-.74.28-1.52.08-1.61 1.77s1.06 1.13 1.79.85c.57-.22 1.91-.85 2.41-1.06s.78 0 .58.49a50.83 50.83 0 0 1-2.3 5.93c-1.6 3.83-4.49 9.05-4.86 10.37 0 .86 1 1 2.23 1a2.28 2.28 0 0 0 1.68-.88s1.49-3.2 3.79-8.84c1.67-4.1 2.75-7.49 3.21-9" transform="translate(-215.44 -417.98)" fill-rule="evenodd" fill="#231f20"/><path class="cls-1" d="M282.54 437.58c-1.78-.51-3.34 1.6-3.8 3.48-.42 1.72-.2 4 1.36 4.32 1.25.24 2.69-.85 3.06-2.87.1-.54.33-2.26.4-2.7.43-2.74.75-3.93.75-3.93 1.49-5.71 5.06-16.82 6-17.47s3.79-.79 2.92 1.53c-1.35 3.6-2.93 6.8-4.35 11.24-1.67 5.21-4.9 13.58-2 14 1.35.17 1.89-1.07 2.7-.44 1.24 1-.11 2.71-2.5 2.95-3.28.12-3.2-1.8-4.66-1-4.66 2.65-7.53-1.05-6.61-5.69.78-4 3.85-6.78 7.27-5.06 0 0 .88.44.8 1.17-.06.57-.49.69-1.35.49m31.99-1.78a1.64 1.64 0 1 1 .48-1.17 1.58 1.58 0 0 1-.48 1.17m-2.17-2.17a1.37 1.37 0 0 0-.41 1 1.42 1.42 0 1 0 2.84 0 1.42 1.42 0 0 0-2.43-1m1 .09a1.39 1.39 0 0 1 .5.07.45.45 0 0 1 .28.46.4.4 0 0 1-.18.36.68.68 0 0 1-.26.09.44.44 0 0 1 .31.18.49.49 0 0 1 .1.28v.26a.29.29 0 0 0 0 .09h-.29v-.24a.44.44 0 0 0-.17-.41.81.81 0 0 0-.36-.06H313v.71h-.31v-1.8zm.35.29a.87.87 0 0 0-.39-.07H313v.65h.29a.9.9 0 0 0 .31 0 .28.28 0 0 0 .19-.28.27.27 0 0 0-.12-.26" transform="translate(-215.44 -417.98)"/></svg>