<svg data-name="Layer 1" xmlns="http://www.w3.org/2000/svg" viewBox="0 0 109.21 19.08"><path d="M18.2 16.64V9.58A9.09 9.09 0 0 0 9.1.51H0v9a9.08 9.08 0 0 0 9.1 9.08h5.31C10.65 16.59 2.67 3.1 2.67 3.1S14.32 18.57 18.2 18.59h1a2.73 2.73 0 0 1-1-1.95zM99.97.01a9.36 9.36 0 0 0-8.41 5.49C90.87 2.19 87.82.02 83.71.01s-6.59 1.86-7.43 4.06V2.83A2.32 2.32 0 0 0 73.96.5h-2.34v1.73A7.38 7.38 0 0 0 66.24.12a8.7 8.7 0 0 0-7.81 5.29 8.59 8.59 0 0 0-8.39-5.4 9.18 9.18 0 0 0-8.95 6.62c-.57-3.94-3.45-6.61-8-6.61a7.83 7.83 0 0 0-8.21 8.12v10.51h4.67V8.03a3.36 3.36 0 0 1 3.54-3.46 3.18 3.18 0 0 1 3.43 3.46v8.29a2.34 2.34 0 0 0 2.34 2.33h2.34v-5.73a9.16 9.16 0 0 0 8.82 6.14 8.57 8.57 0 0 0 8.39-5.31 8.7 8.7 0 0 0 7.8 5.27 7.37 7.37 0 0 0 5.38-2.11l.07-.07a2.33 2.33 0 0 0 2.26 1.79h2.33v-3.4c1.39 2.45 4.22 3.89 7.79 3.89 4.06 0 7.11-1.93 7.83-4.79a9.3 9.3 0 0 0 8.07 4.79c4.54 0 7.76-2.5 8.82-6.21h-5a4.24 4.24 0 0 1-3.86 2.12 4.64 4.64 0 0 1-4.57-3.6h13.77c.71-7.2-3.75-11.42-9.13-11.42zm-42 12.5h-4.09a4.27 4.27 0 0 1-3.82 2.33 5 5 0 0 1-4.68-5.23c0-2.93 2.09-5.34 4.68-5.34a4.37 4.37 0 0 1 3.79 2.29H58a9.94 9.94 0 0 0-.5 3 10.14 10.14 0 0 0 .46 2.95zm13.59-2.89a4.69 4.69 0 1 1-9.35 0 4.69 4.69 0 1 1 9.34 0zm12.52 5.23c-1.38 0-3.26-.57-3.9-2.13h-3.9V7.56c1.07 2.59 4.52 3.3 7.26 3.72 3.19.5 3.82.92 3.82 1.94s-1.42 1.63-3.29 1.63zm6.56-5.38c-1.37-1.22-3.62-1.77-6.35-2.22-2.27-.35-3.62-.67-3.62-1.62 0-.67.88-1.45 3-1.45 1.74 0 2.76.67 3 1.52h4.69a9.69 9.69 0 0 0-.73 3.77zm4.8-1.89a4.67 4.67 0 0 1 4.5-3.47 4.57 4.57 0 0 1 4.56 3.47zM21.56.51h-2.34v15.82a2.33 2.33 0 0 0 2.33 2.33h2.33V2.85A2.32 2.32 0 0 0 21.55.51z" fill="#231f20"/></svg>