<svg id="Layer_1" data-name="Layer 1" xmlns="http://www.w3.org/2000/svg" viewBox="0 0 90.65 30.29"><defs><style>.cls-1{fill:#231f20}</style></defs><path class="cls-1" d="M5118.42 1531.62c-.28-.71-.81-1-1.75-1.23a144.19 144.19 0 0 0-38.26-5.79h-3.89c-10.82 0-24.09 2-38 5.82a2.18 2.18 0 0 0-1.55 1.46 14.72 14.72 0 0 0-.94 5.16 20.42 20.42 0 0 0 .93 5.2c.46 1.06 1.14 1.22 2.4 1.59 13.84 3.85 26.35 5.69 37.19 5.69h3.88a143.37 143.37 0 0 0 38.11-5.77c1.26-.42 1.52-.56 1.9-1.56a14.17 14.17 0 0 0 .87-5.17v-.18a14 14 0 0 0-.89-5.22zm-77.28 9.08c.2.54 0 .84-.74.84h-.81a1.5 1.5 0 0 1-1.55-.84 9.61 9.61 0 0 1 0-7.48 1.5 1.5 0 0 1 1.55-.85h.81c.74 0 .95.3.74.85a9 9 0 0 0 0 7.48zm15.22 1.11a2 2 0 0 1 .61.36.79.79 0 0 1 .13.48v.67c0 .85-.21 1.14-1 1a12.11 12.11 0 0 1-1.73-.59c-1.76-.72-8.29-3.27-11.93-4.68a2 2 0 0 1-.64-.34 3.4 3.4 0 0 1-.41-1.67 3.49 3.49 0 0 1 .34-1.68 1.19 1.19 0 0 1 .7-.46c3.64-1.41 10.16-4 11.93-4.68a13.08 13.08 0 0 1 1.73-.6c.75-.15 1 .14 1 1v.67a.79.79 0 0 1-.13.48 2 2 0 0 1-.61.37c-2 .84-10.25 4-12.4 4.84 2.15.85 10.38 4.02 12.4 4.83zm12.78-11.29c-1.56.16-2.75.28-4.61.5a6.34 6.34 0 0 0-2.37.73 1.76 1.76 0 0 0-.93 1.45v7.55a1.75 1.75 0 0 0 .93 1.45 6.28 6.28 0 0 0 2.37.73c1.86.23 3.06.34 4.61.5s2.93.16 4.58.28c.62 0 .92.34.92 1v.67c0 .71-.39 1.08-1 1-1.55-.06-2.75-.13-4.55-.35s-2.72-.44-4.44-.74c-.32-.06-1-.2-1.37-.31a13.36 13.36 0 0 1-2.14-.77 4.85 4.85 0 0 1-1.55-1 3.51 3.51 0 0 1-1-2.82v-6.83a3.51 3.51 0 0 1 1-2.81 4.87 4.87 0 0 1 1.55-1 13.24 13.24 0 0 1 2.14-.77c.37-.12 1.05-.26 1.37-.32 1.72-.3 2.66-.51 4.44-.74s3-.3 4.55-.36c.62-.06 1 .31 1 1v.67c0 .69-.3 1-.92 1-1.66.13-3.01.13-4.59.29zm2.07 6v.85c-.06.73-.31 1.09-.94 1.09-1 0-6.72-.2-7.11-.22s-.71-.08-.78-.28a4 4 0 0 1-.07-1 4.08 4.08 0 0 1 .07-.93c.07-.2.11-.32.78-.36.37 0 6.08-.21 7.11-.25.62-.03.87.33.93 1.05zm21.8-5.3c0 .6-.25.84-.87.72-1.5-.3-5.4-1-9.15-1.4a4.74 4.74 0 0 0-2.37.23 1.37 1.37 0 0 0-.94 1.32v9.83a1.37 1.37 0 0 0 .94 1.33 4.69 4.69 0 0 0 2.38.22c3.74-.42 7.65-1.06 9.15-1.36.62-.12.87.12.87.72v.3c0 .54-.09 1-.71 1.14a45.22 45.22 0 0 1-4.78 1.15c-1.55.31-2.59.47-4.15.71a12.34 12.34 0 0 1-1.59.2 6.07 6.07 0 0 1-1.86-.24 4.5 4.5 0 0 1-1.5-.84 4.22 4.22 0 0 1-1.38-3.26V1532a4.2 4.2 0 0 1 1.38-3.25 4.43 4.43 0 0 1 1.5-.85 6.09 6.09 0 0 1 1.86-.24 12.09 12.09 0 0 1 1.59.2c1.56.24 2.59.4 4.15.71a43.72 43.72 0 0 1 4.78 1.15c.62.19.71.6.71 1.14zm-3.28 5.58v.46c-.07.66-.32 1-.94 1-1 0-4.79.14-7.21.23 0 0-.39 0-.5-.29a3.44 3.44 0 0 1-.14-1.12 5.07 5.07 0 0 1 .09-1.22c.11-.35.57-.31.57-.31 2.42.09 6.22.22 7.2.22.61-.04.85.32.93.98zm22 2.47a5.11 5.11 0 0 1-.23 1.1c-.15.35-.6.07-.82-.08-1.45-.94-3.42-2.21-4.94-3.05-2.31-1.32-4.61-2.58-6.92-3.83.06 1.63.06 3.2.06 4.83s-.13 3.2-.25 4.83a.94.94 0 0 1-1.06.85h-.75c-.62 0-.86-.3-.86-.84 0-1.93.1-3.87.1-5.74s-.1-3.86-.1-5.79v-.55a.89.89 0 0 1 .15-.48 1.07 1.07 0 0 1 .41-.36 1 1 0 0 1 .43-.12h.31a2.78 2.78 0 0 1 1.25.36c.12.06 5.18 2.81 7.55 4.07 1.89 1 3.58 1.91 5.36 2.91.16.08.38.22.42.4a5.72 5.72 0 0 1-.11 1.44zm4 1a2.05 2.05 0 0 1-.88 1.31 3.48 3.48 0 0 1-1.51.2.71.71 0 0 1-.61-.19.44.44 0 0 1 0-.38 23.62 23.62 0 0 0 .47-3.75 12 12 0 0 0-.53-4.13c-.19-.54.07-.85.69-.85h.81a1.27 1.27 0 0 1 1.38.85 10.52 10.52 0 0 1 .67 3.54 11.15 11.15 0 0 1-.49 3.31z" transform="translate(-5031.27 -1521.85)"/><path class="cls-1" d="M5120.9 1530.91a4.73 4.73 0 0 0-3-3.06c-13.74-3.8-28.14-6-39.56-6h-3.82c-10.95 0-25.16 2.19-39 6h-.14a4.69 4.69 0 0 0-3 3 17.1 17.1 0 0 0 0 12 4.72 4.72 0 0 0 3 3.06c13.94 3.87 28.19 6.08 39.15 6.08h3.83c11.42 0 25.79-2.16 39.41-5.93a4.7 4.7 0 0 0 3.12-3.09 18.4 18.4 0 0 0 1-6v-.22a18.9 18.9 0 0 0-.99-5.84zm-.38 6.17a17.15 17.15 0 0 1-.95 5.52 3.3 3.3 0 0 1-2.16 2.18c-13.5 3.74-27.73 5.88-39 5.88h-3.82c-10.84 0-24.94-2.19-38.73-6a3.28 3.28 0 0 1-2.07-2.15 15.66 15.66 0 0 1 0-11.1 3.25 3.25 0 0 1 2.08-2.15h.09c13.72-3.79 27.79-6 38.61-6h3.82c11.3 0 25.55 2.15 39.13 5.91a3.31 3.31 0 0 1 2.07 2.16 17.27 17.27 0 0 1 .94 5.52z" transform="translate(-5031.27 -1521.85)"/></svg>