<svg id="Layer_1" data-name="Layer 1" xmlns="http://www.w3.org/2000/svg" viewBox="0 0 187.09 33.88"><defs><style>.cls-1{fill:#231f20;fill-rule:evenodd}</style></defs><path class="cls-1" d="M24.84 27.57v3.98H0V4.22h4.47v23.35h20.37zm-3.47-13.41l4.97-9.44h-4.73l-3.72 9.44h3.48z"/><path class="cls-1" d="M5068.43 1329.29a17.75 17.75 0 0 0-6.74-6.12 19.91 19.91 0 0 0-18.3 0 17.75 17.75 0 0 0-6.74 6.12 15.5 15.5 0 0 0 0 16.82 17.75 17.75 0 0 0 6.74 6.12 19.91 19.91 0 0 0 18.3 0 17.75 17.75 0 0 0 6.74-6.12 15.5 15.5 0 0 0 0-16.82zm-3.87 15.1a13.55 13.55 0 0 1-5 4.81 14.29 14.29 0 0 1-13.72 0 13.55 13.55 0 0 1-5-4.81 12.66 12.66 0 0 1 0-13.18 13.55 13.55 0 0 1 5-4.81 14.29 14.29 0 0 1 13.72 0 13.54 13.54 0 0 1 5 4.81 12.66 12.66 0 0 1 0 13.18zm37.54-7.81a7.5 7.5 0 0 1-3.54 3.43 5.68 5.68 0 0 1-2.93.81l8.7 11.3h-5l-8.41-10.93h-11v10.93h-4.47v-27.32h17.89a10.68 10.68 0 0 1 5.26 1.27 7.72 7.72 0 0 1 3.68 4.25 9.19 9.19 0 0 1-.23 6.27zm-5-.19a4.33 4.33 0 0 0 1.45-3.4 4.77 4.77 0 0 0-1.64-3.37 4.84 4.84 0 0 0-3.26-.85H5080v8.45h13.66a5.17 5.17 0 0 0 3.45-.82z" transform="translate(-5006.44 -1320.58)"/><path class="cls-1" d="M121.49 15.9v3.72h-15.15v7.95h20.37v3.98h-24.85V4.22h24.85V8.2h-20.37v7.7h15.15zm.25-15.9h-6.71l-2.73 3.48L121.74 0z"/><path class="cls-1" d="M5141.91 1345.17l-3.54 7h-4.47l13.91-27.32h4.47l13.91 27.32h-4.47l-3.54-7zm8.14-16l-6.36 12.5h12.73l-6.36-12.5z" transform="translate(-5006.44 -1320.58)"/><path class="cls-1" d="M186.84 27.57v3.98h-24.85V4.22h4.47v23.35h20.38z"/><path class="cls-1" d="M5191.34 1330.28v-.65a1 1 0 0 0-.27-.76.43.43 0 0 0-.28-.15.88.88 0 0 0 .46-.38 1.3 1.3 0 0 0 .18-.7 1.44 1.44 0 0 0-.22-.76 1.41 1.41 0 0 0-1.31-.5h-2v4.56h.77v-1.88h1.15a.79.79 0 0 1 .54.15c.28.33.15.76.2 1.12a1.4 1.4 0 0 0 .12.61h.86v-.14c-.16-.06-.17-.29-.19-.52zm-.95-2a1.11 1.11 0 0 1-.65.15h-1.08V1327h1.42a.64.64 0 0 1 .51.36.73.73 0 0 1-.19.86z" transform="translate(-5006.44 -1320.58)"/><path class="cls-1" d="M5193 1326.73a3.85 3.85 0 1 0 .52 1.93 3.88 3.88 0 0 0-.52-1.93zm-.46 3.6a3.26 3.26 0 1 1 .44-1.63 3.29 3.29 0 0 1-.44 1.63z" transform="translate(-5006.44 -1320.58)"/></svg>