<svg id="Layer_1" data-name="Layer 1" xmlns="http://www.w3.org/2000/svg" viewBox="0 0 94.03 18.89"><defs><style>.cls-1{fill:#231f20}</style></defs><path class="cls-1" d="M37.13 2.13l-4.67 5.75-4.66-5.75h-3.08l6.2 7.66-6.19 7.64h3.07l4.66-5.73 4.64 5.73h3.12l-6.2-7.64 6.22-7.66h-3.11zm-18.63 0h2.51v15.31H18.5zM11.25 13.2L2.26 2.13H0v15.3h2.51V6.34l8.98 11.09h2.27V2.13h-2.51V13.2zm60.01 0l-9-11.07h-2.25v15.3h2.51V6.34l8.98 11.09h2.27V2.13h-2.51V13.2z"/><path class="cls-1" d="M5078.64 1088.24a7.75 7.75 0 1 0 7.75 7.75 7.76 7.76 0 0 0-7.75-7.75zm0 13a5.24 5.24 0 1 1 5.24-5.24 5.25 5.25 0 0 1-5.24 5.23zm39.3-15.04v9.69a2.52 2.52 0 0 0 .94 2.17 13.87 13.87 0 0 1 2.34 2.21c1.11 1.49-1.23 3.36-4 3.35s-5.09-1.86-4-3.35a14.14 14.14 0 0 1 2.34-2.21 2.5 2.5 0 0 0 .94-2.17v-9.69s-8.4 10.15-4.75 16.39c.93 1.49 2.75 2.5 5.47 2.5s4.53-1 5.46-2.5c3.65-6.24-4.75-16.39-4.75-16.39" transform="translate(-5029.58 -1086.2)"/></svg>