<svg id="Layer_1" data-name="Layer 1" xmlns="http://www.w3.org/2000/svg" viewBox="0 0 81.4 38.83"><defs><style>.cls-1{fill:#231f20}</style></defs><path class="cls-1" d="M5252.8 1703.76l-6.52-6.52 3.66-3.66-.08-10.42h-10.11l-1.11.8v-2.78l10.42-10.34 9.95 9.87h2.15l8.91-8.75 8.91 8.83h1.51l-12.09-12-9.39 9.47-13-13-19.26 19.18-5.89-10.58 3.1 1.43-5.57-10.18-6 9.95 3.18-1-5.81 10.5 3.5-1.83-6.13 11.14 4.22-2-7.08 12h34.13v-4.3h.8l4.53 4.3zm-29.92-21.08l3.58 2.07-1.27 1.27zm8.35 19.17l-4.93-8.59 4.93-4.85zm11.14-9.07h-3.9v-1.67l3.9-3.74z" transform="translate(-5204.34 -1665.01)"/><path class="cls-1" d="M65.48 30.71v-5.09h-8.27v-2.71h8.11v-4.77H49.73v20.69h15.75v-5.49h-8.27v-2.63h8.27zm3.98-12.57h6.92v20.69h-6.92z"/><path class="cls-1" d="M5284 1683.31a1.67 1.67 0 1 0 1.75 1.67 1.7 1.7 0 0 0-1.75-1.67zm0 3.1a1.41 1.41 0 0 1-1.35-1.43 1.36 1.36 0 0 1 1.35-1.43 1.38 1.38 0 0 1 1.43 1.43 1.43 1.43 0 0 1-1.43 1.43z" transform="translate(-5204.34 -1665.01)"/><path class="cls-1" d="M5284.78 1684.5c0-.32-.16-.56-.64-.56h-.8v2h.32v-.88h.32l.56.88h.32l-.56-.88c.32 0 .48-.16.48-.56zm-1.11.32v-.64h.4c.24 0 .48.08.48.32s-.32.32-.56.32z" transform="translate(-5204.34 -1665.01)"/></svg>